<?xml version="1.0" encoding="UTF-8"?>
<svg id="_レイヤー_1" xmlns="http://www.w3.org/2000/svg" version="1.1" viewBox="0 0 457 441">
  <!-- Generator: Adobe Illustrator 30.1.0, SVG Export Plug-In . SVG Version: 2.1.1 Build 136)  -->
  <defs>
    <style>
      .st0 {
        isolation: isolate;
      }

      .st1 {
        fill: #fff;
      }

      .st2 {
        fill: none;
        stroke: #fff;
        stroke-miterlimit: 10;
        stroke-width: 1px;
      }
    </style>
  </defs>
  <g class="st0">
    <g class="st0">
      <path class="st1" d="M67,129.4h1.7v6.4c-1.6,1.4-3.8,2.1-6.2,2.1-5.1,0-8.9-3.6-8.9-8.5s3.7-8.5,8.9-8.5,4.8.8,6.2,2.4l-1.1,1.1c-1.4-1.4-3.1-2-5.1-2-4.2,0-7.2,3-7.2,7s3,7,7.2,7,3.1-.4,4.4-1.3v-5.7Z"/>
    </g>
    <g class="st0">
      <path class="st1" d="M79.7,125v1.7c-.1,0-.3,0-.4,0-2.6,0-4.2,1.7-4.2,4.7v6.4h-1.7v-12.6h1.6v2.5c.8-1.7,2.4-2.6,4.7-2.6Z"/>
    </g>
    <g class="st0">
      <path class="st1" d="M92.3,129.9v7.8h-1.6v-2c-.8,1.3-2.3,2.1-4.3,2.1s-4.6-1.5-4.6-3.7,1.2-3.6,4.9-3.6h4v-.8c0-2.2-1.2-3.3-3.6-3.3s-3.2.6-4.2,1.5l-.8-1.3c1.3-1.1,3.1-1.7,5.1-1.7,3.3,0,5.1,1.6,5.1,4.9ZM90.6,134v-2.1h-4c-2.4,0-3.2,1-3.2,2.3s1.2,2.4,3.2,2.4,3.3-.9,4-2.6Z"/>
      <path class="st1" d="M103.6,137c-.7.6-1.7.9-2.7.9-2.4,0-3.7-1.3-3.7-3.7v-7.6h-2.3v-1.4h2.3v-2.8h1.7v2.8h3.8v1.4h-3.8v7.5c0,1.5.8,2.3,2.2,2.3s1.4-.2,1.9-.6l.6,1.2Z"/>
      <path class="st1" d="M106.3,121.2c0-.6.6-1.2,1.2-1.2s1.2.5,1.2,1.2-.5,1.2-1.2,1.2-1.2-.6-1.2-1.2ZM106.7,125.1h1.7v12.6h-1.7v-12.6Z"/>
      <path class="st1" d="M119.8,137c-.7.6-1.7.9-2.7.9-2.4,0-3.7-1.3-3.7-3.7v-7.6h-2.3v-1.4h2.3v-2.8h1.7v2.8h3.8v1.4h-3.8v7.5c0,1.5.8,2.3,2.2,2.3s1.4-.2,1.9-.6l.6,1.2Z"/>
      <path class="st1" d="M134.3,125.1v12.6h-1.6v-2.3c-.9,1.5-2.5,2.4-4.5,2.4-3.2,0-5.3-1.8-5.3-5.4v-7.3h1.7v7.2c0,2.7,1.4,4.1,3.8,4.1s4.3-1.7,4.3-4.6v-6.6h1.7Z"/>
      <path class="st1" d="M150.6,120v17.8h-1.6v-2.5c-1,1.7-2.8,2.6-4.9,2.6-3.6,0-6.3-2.6-6.3-6.4s2.7-6.4,6.3-6.4,3.7.9,4.8,2.5v-7.6h1.7ZM148.9,131.5c0-3-2-4.9-4.7-4.9s-4.7,2-4.7,4.9,2,4.9,4.7,4.9,4.7-2,4.7-4.9Z"/>
      <path class="st1" d="M166.3,132h-10.6c.2,2.6,2.2,4.4,5,4.4s2.9-.6,3.9-1.7l1,1.1c-1.1,1.3-2.9,2.1-4.9,2.1-3.9,0-6.6-2.7-6.6-6.4s2.6-6.4,6.2-6.4,6.1,2.6,6.1,6.4,0,.3,0,.5ZM155.8,130.7h9c-.2-2.5-2-4.2-4.5-4.2s-4.2,1.7-4.5,4.2Z"/>
    </g>
  </g>
  <g class="st0">
    <g class="st0">
      <path class="st1" d="M296,135.7l.7-1.4c1.2,1.2,3.3,2,5.5,2,3.1,0,4.5-1.3,4.5-3,0-4.6-10.3-1.8-10.3-8s1.9-4.6,6.2-4.6,3.9.6,5.2,1.5l-.6,1.4c-1.4-.9-3.1-1.4-4.6-1.4-3.1,0-4.4,1.4-4.4,3,0,4.6,10.3,1.8,10.3,7.9s-2,4.6-6.3,4.6-5-.9-6.2-2.2Z"/>
      <path class="st1" d="M311.6,121.2c0-.6.6-1.2,1.2-1.2s1.2.5,1.2,1.2-.5,1.2-1.2,1.2-1.2-.6-1.2-1.2ZM312,125.1h1.7v12.6h-1.7v-12.6Z"/>
    </g>
    <g class="st0">
      <path class="st1" d="M330.1,130.5v7.3h-1.7v-7.2c0-2.7-1.4-4-3.8-4s-4.4,1.7-4.4,4.6v6.6h-1.7v-12.6h1.6v2.3c.9-1.5,2.6-2.4,4.8-2.4s5.2,1.8,5.2,5.4Z"/>
    </g>
    <g class="st0">
      <path class="st1" d="M333.5,131.5c0-3.8,2.7-6.4,6.5-6.4s3.9.8,4.9,2.5l-1.3.9c-.9-1.3-2.2-1.9-3.7-1.9-2.8,0-4.8,2-4.8,4.9s2,4.9,4.8,4.9,2.8-.6,3.7-1.8l1.3.9c-1,1.6-2.8,2.5-4.9,2.5-3.8,0-6.5-2.7-6.5-6.4Z"/>
    </g>
    <g class="st0">
      <path class="st1" d="M359,132h-10.6c.2,2.6,2.2,4.4,5,4.4s2.9-.6,3.9-1.7l1,1.1c-1.1,1.3-2.9,2.1-4.9,2.1-3.9,0-6.6-2.7-6.6-6.4s2.6-6.4,6.2-6.4,6.1,2.6,6.1,6.4,0,.3,0,.5ZM348.5,130.7h9c-.2-2.5-2-4.2-4.5-4.2s-4.2,1.7-4.5,4.2Z"/>
    </g>
    <g class="st0">
      <path class="st1" d="M368.9,125v1.7c-.1,0-.3,0-.4,0-2.6,0-4.2,1.7-4.2,4.7v6.4h-1.7v-12.6h1.6v2.5c.8-1.7,2.4-2.6,4.7-2.6Z"/>
    </g>
    <g class="st0">
      <path class="st1" d="M371.6,121.2c0-.6.6-1.2,1.2-1.2s1.2.5,1.2,1.2-.5,1.2-1.2,1.2-1.2-.6-1.2-1.2ZM372,125.1h1.7v12.6h-1.7v-12.6Z"/>
    </g>
    <g class="st0">
      <path class="st1" d="M385.1,137c-.7.6-1.7.9-2.7.9-2.4,0-3.7-1.3-3.7-3.7v-7.6h-2.3v-1.4h2.3v-2.8h1.7v2.8h3.8v1.4h-3.8v7.5c0,1.5.8,2.3,2.2,2.3s1.4-.2,1.9-.6l.6,1.2Z"/>
    </g>
    <g class="st0">
      <path class="st1" d="M398.6,125.1l-6.3,14.1c-1.1,2.5-2.4,3.3-4.2,3.3s-2.3-.4-3.1-1.2l.8-1.3c.6.6,1.4,1,2.3,1s1.9-.5,2.6-2.1l.6-1.2-5.6-12.6h1.8l4.8,10.7,4.8-10.7h1.7Z"/>
    </g>
  </g>
  <g class="st0">
    <g class="st0">
      <path class="st1" d="M92.4,326.1c0-4.9,3.7-8.5,8.8-8.5s4.7.8,6.1,2.4l-1.1,1.1c-1.4-1.4-3-2-5-2-4.1,0-7.1,3-7.1,7s3,7,7.1,7,3.6-.6,5-2l1.1,1.1c-1.5,1.6-3.7,2.5-6.2,2.5-5,0-8.8-3.6-8.8-8.5Z"/>
    </g>
    <g class="st0">
      <path class="st1" d="M108.9,328.2c0-3.7,2.7-6.4,6.4-6.4s6.4,2.7,6.4,6.4-2.7,6.4-6.4,6.4-6.4-2.7-6.4-6.4ZM120,328.2c0-3-2-4.9-4.7-4.9s-4.7,2-4.7,4.9,2,4.9,4.7,4.9,4.7-2,4.7-4.9Z"/>
      <path class="st1" d="M146.1,327.2v7.3h-1.7v-7.2c0-2.7-1.3-4-3.6-4s-4.2,1.7-4.2,4.6v6.6h-1.7v-7.2c0-2.7-1.3-4-3.6-4s-4.2,1.7-4.2,4.6v6.6h-1.7v-12.6h1.6v2.3c.9-1.5,2.5-2.4,4.6-2.4s3.7.9,4.5,2.7c.9-1.6,2.7-2.7,5-2.7s5.1,1.8,5.1,5.4Z"/>
      <path class="st1" d="M171.5,327.2v7.3h-1.7v-7.2c0-2.7-1.3-4-3.6-4s-4.2,1.7-4.2,4.6v6.6h-1.7v-7.2c0-2.7-1.3-4-3.6-4s-4.2,1.7-4.2,4.6v6.6h-1.7v-12.6h1.6v2.3c.9-1.5,2.5-2.4,4.6-2.4s3.7.9,4.5,2.7c.9-1.6,2.7-2.7,5-2.7s5.1,1.8,5.1,5.4Z"/>
      <path class="st1" d="M187.5,321.9v12.6h-1.6v-2.3c-.9,1.5-2.5,2.4-4.5,2.4-3.2,0-5.3-1.8-5.3-5.4v-7.3h1.7v7.2c0,2.7,1.4,4.1,3.8,4.1s4.3-1.7,4.3-4.6v-6.6h1.7Z"/>
      <path class="st1" d="M203.9,327.2v7.3h-1.7v-7.2c0-2.7-1.4-4-3.8-4s-4.4,1.7-4.4,4.6v6.6h-1.7v-12.6h1.6v2.3c.9-1.5,2.6-2.4,4.8-2.4s5.2,1.8,5.2,5.4Z"/>
      <path class="st1" d="M208.2,317.9c0-.6.6-1.2,1.2-1.2s1.2.5,1.2,1.2-.5,1.2-1.2,1.2-1.2-.6-1.2-1.2ZM208.6,321.9h1.7v12.6h-1.7v-12.6Z"/>
      <path class="st1" d="M213.8,328.2c0-3.8,2.7-6.4,6.5-6.4s3.9.8,4.9,2.5l-1.3.9c-.9-1.3-2.2-1.9-3.7-1.9-2.8,0-4.8,2-4.8,4.9s2,4.9,4.8,4.9,2.8-.6,3.7-1.8l1.3.9c-1,1.6-2.8,2.5-4.9,2.5-3.8,0-6.5-2.7-6.5-6.4Z"/>
      <path class="st1" d="M238.1,326.7v7.8h-1.6v-2c-.8,1.3-2.3,2.1-4.3,2.1s-4.6-1.5-4.6-3.7,1.2-3.6,4.9-3.6h4v-.8c0-2.2-1.2-3.3-3.6-3.3s-3.2.6-4.2,1.5l-.8-1.3c1.3-1.1,3.1-1.7,5.1-1.7,3.3,0,5.1,1.6,5.1,4.9ZM236.4,330.7v-2.1h-4c-2.4,0-3.2,1-3.2,2.3s1.2,2.4,3.2,2.4,3.3-.9,4-2.6Z"/>
      <path class="st1" d="M249.3,333.8c-.7.6-1.7.9-2.7.9-2.4,0-3.7-1.3-3.7-3.7v-7.6h-2.3v-1.4h2.3v-2.8h1.7v2.8h3.8v1.4h-3.8v7.5c0,1.5.8,2.3,2.2,2.3s1.4-.2,1.9-.6l.6,1.2Z"/>
      <path class="st1" d="M252.1,317.9c0-.6.6-1.2,1.2-1.2s1.2.5,1.2,1.2-.5,1.2-1.2,1.2-1.2-.6-1.2-1.2ZM252.4,321.9h1.7v12.6h-1.7v-12.6Z"/>
      <path class="st1" d="M257.6,328.2c0-3.7,2.7-6.4,6.4-6.4s6.4,2.7,6.4,6.4-2.7,6.4-6.4,6.4-6.4-2.7-6.4-6.4ZM268.7,328.2c0-3-2-4.9-4.7-4.9s-4.7,2-4.7,4.9,2,4.9,4.7,4.9,4.7-2,4.7-4.9Z"/>
      <path class="st1" d="M285.6,327.2v7.3h-1.7v-7.2c0-2.7-1.4-4-3.8-4s-4.4,1.7-4.4,4.6v6.6h-1.7v-12.6h1.6v2.3c.9-1.5,2.6-2.4,4.8-2.4s5.2,1.8,5.2,5.4Z"/>
    </g>
  </g>
  <ellipse class="st2" cx="131" cy="135.1" rx="144" ry="120" transform="translate(-56.7 148.6) rotate(-50)"/>
  <ellipse class="st2" cx="326" cy="135.1" rx="144" ry="120" transform="translate(13 298) rotate(-50)"/>
  <ellipse class="st2" cx="195.9" cy="305.9" rx="144" ry="120" transform="translate(-164.3 259.4) rotate(-50)"/>
</svg>