<?xml version="1.0" encoding="UTF-8"?>
<svg id="_レイヤー_1" data-name="レイヤー 1" xmlns="http://www.w3.org/2000/svg" viewBox="0 0 487.79 486.53">
  <defs>
    <style>
      .cls-1 {
        fill: #f7f7f7;
      }
    </style>
  </defs>
  <path class="cls-1" d="M305.94,437.55c-.1-1.77.59-3.81,3.44-5.07,6.84-3.01,9.21,2.37,10.72,5.79l6.78,15.39c2.43,5.51,6.48,8.87,11.23,6.78,5.95-2.62,5.44-9.28,3.82-12.95l-10.1-22.93-2.72,1.2-.39-.89,11.15-4.91.39.89-2.72,1.2,20.6,46.74,2.72-1.2.42.95-8.42,3.71-8.74-19.83c.04,3.69-1.7,7.48-6.26,9.49-7.92,3.49-14.53-.71-17.8-8.12l-7.67-17.42c-1.14-2.6-2.63-2.7-3.64-2.25-1.33.59-1.79,1.77-1.79,2.98l-1.01.45Z"/>
  <path class="cls-1" d="M266.79,446.22c.33-1.7,1.32-3.63,4.36-4.3,5.07-1.12,7.27,1.44,8.38,4.24,1-4.12,4.05-7,8.1-7.9,5.27-1.17,9.26-.14,12.57,2.31,3.64,2.67,5.9,7.41,7.1,12.82,1.05,4.73,1.24,9.08-.02,12.69-1.64,4.76-5.2,8.17-11.49,9.57-2.5.56-5.13.5-7.62-.15-6.5-1.82-9.75-5.92-11.6-14.23l-3.31-14.93c-.58-2.64-1.98-3.18-3.06-2.94-1.42.31-2.1,1.39-2.27,2.56l-1.15.25ZM283.33,462.61c1.98,8.92,4.86,13.6,12.29,11.95,6.96-1.54,7.67-6.66,6.35-12.61l-2.25-10.13c-2.16-9.73-5.21-13.87-11.83-12.4-5.68,1.26-8.28,6.45-7.4,10.43l2.83,12.77Z"/>
  <path class="cls-1" d="M227.18,446.74c.59-1.67,2-3.3,5.12-3.37,7.47-.17,7.6,5.72,7.69,9.45l.37,16.82c.13,6.02,2.59,10.67,7.78,10.56,6.5-.14,8.58-6.49,8.49-10.5l-.55-25.05-2.98.07-.02-.97,12.18-.27.02.97-2.98.07.76,34.53,2.98-.07.02,1.04-9.2.2-.11-5.12c-1.38,3.42-4.43,6.26-9.41,6.37-8.65.19-13.15-6.22-13.33-14.31l-.42-19.03c-.06-2.84-1.39-3.5-2.5-3.48-1.45.03-2.33.95-2.79,2.07l-1.11.02Z"/>
  <path class="cls-1" d="M187.67,439.88c.95-1.45,2.6-2.85,5.67-2.32,5.11.89,6.17,4.09,6.14,7.11,2.49-3.43,6.4-4.93,10.5-4.22,5.32.92,8.61,3.39,10.74,6.92,2.35,3.85,2.64,9.1,1.69,14.55-.83,4.77-2.31,8.87-4.84,11.73-3.32,3.78-7.92,5.58-14.26,4.48-2.52-.44-4.94-1.49-6.99-3.04-5.32-4.15-6.77-9.18-5.31-17.57l2.61-15.07c.46-2.66-.62-3.69-1.72-3.88-1.43-.25-2.47.48-3.07,1.5l-1.16-.2ZM196.73,461.33c-1.56,9-.68,14.42,6.83,15.72,7.02,1.22,9.62-3.25,10.67-9.25l1.77-10.23c1.7-9.82.46-14.81-6.22-15.97-5.73-.99-10.11,2.81-10.81,6.84l-2.23,12.89Z"/>
  <path class="cls-1" d="M151.48,425.55c1.18-1.33,3.1-2.29,6.01-1.18,6.98,2.68,4.87,8.17,3.53,11.66l-6.03,15.7c-2.16,5.62-1.65,10.86,3.2,12.72,6.07,2.33,10.4-2.75,11.84-6.5l8.98-23.39-2.78-1.07.35-.9,11.37,4.37-.35.9-2.78-1.07-18.31,47.69,2.78,1.07-.37.97-8.59-3.3,7.77-20.23c-2.57,2.65-6.47,4.11-11.13,2.33-8.08-3.1-9.82-10.74-6.91-18.3l6.82-17.77c1.02-2.65.04-3.77-1-4.16-1.36-.52-2.52,0-3.37.86l-1.03-.4Z"/>
  <path class="cls-1" d="M117.58,404.15c1.43-.98,3.49-1.64,6.13.02,4.39,2.77,4.15,6.13,2.97,8.91,3.61-2.22,7.8-2.12,11.31.1,4.57,2.88,6.67,6.42,7.3,10.49.71,4.46-1.03,9.42-3.98,14.1-2.58,4.1-5.52,7.32-8.95,9-4.51,2.23-9.45,2.14-14.9-1.29-2.17-1.37-4-3.26-5.31-5.47-3.34-5.87-2.76-11.07,1.78-18.27l8.16-12.94c1.44-2.28.83-3.65-.11-4.24-1.23-.77-2.47-.49-3.41.22l-1-.63ZM117.79,427.44c-4.87,7.73-6.12,13.08.32,17.14,6.03,3.8,10.14.66,13.38-4.49l5.54-8.78c5.32-8.43,6.07-13.52.33-17.14-4.92-3.1-10.42-1.25-12.6,2.2l-6.98,11.07Z"/>
  <path class="cls-1" d="M89.08,376.67c1.59-.78,3.75-.93,6,1.21,5.42,5.14,1.38,9.41-1.19,12.12l-11.57,12.21c-4.14,4.37-5.67,9.4-1.9,12.98,4.72,4.48,10.66,1.43,13.42-1.49l17.23-18.18-2.16-2.05.67-.7,8.84,8.38-.67.7-2.16-2.05-23.76,25.07,2.16,2.05-.71.75-6.68-6.33,3.52-3.72c-3.39,1.46-7.55,1.33-11.17-2.1-6.28-5.95-4.97-13.67.6-19.55l13.09-13.81c1.95-2.06,1.47-3.47.67-4.23-1.05-1-2.33-.97-3.44-.5l-.8-.76Z"/>
  <path class="cls-1" d="M65.85,343.96c1.7-.36,3.85-.19,5.66,2.35,3.01,4.23,1.5,7.25-.64,9.37,4.19-.68,8.02,1.01,10.43,4.39,3.13,4.4,3.73,8.47,2.75,12.48-1.04,4.39-4.53,8.32-9.04,11.52-3.95,2.81-7.89,4.67-11.7,4.92-5.02.34-9.55-1.61-13.28-6.86-1.48-2.09-2.46-4.54-2.82-7.08-.85-6.7,1.66-11.28,8.6-16.22l12.47-8.86c2.2-1.56,2.16-3.06,1.51-3.96-.84-1.18-2.1-1.4-3.24-1.09l-.68-.96ZM57.18,365.58c-7.45,5.29-10.63,9.77-6.22,15.97,4.13,5.81,9.12,4.47,14.09.94l8.46-6.02c8.12-5.77,10.76-10.19,6.83-15.72-3.37-4.74-9.16-5.12-12.49-2.76l-10.66,7.58Z"/>
  <path class="cls-1" d="M50.2,308.31c1.77-.12,3.82.55,5.1,3.39,3.07,6.81-2.29,9.23-5.69,10.77l-15.33,6.92c-5.49,2.48-8.81,6.56-6.67,11.29,2.68,5.93,9.33,5.36,12.99,3.71l22.83-10.31-1.22-2.71.88-.4,5.01,11.1-.88.4-1.22-2.71-46.55,21.01,1.22,2.71-.95.43-3.79-8.39,19.74-8.91c-3.69.07-7.49-1.63-9.54-6.17-3.56-7.88.58-14.54,7.96-17.87l17.35-7.83c2.59-1.17,2.68-2.65,2.22-3.66-.6-1.32-1.79-1.77-3-1.76l-.46-1.01Z"/>
  <path class="cls-1" d="M41.17,269.23c1.71.32,3.64,1.29,4.34,4.32,1.17,5.06-1.37,7.28-4.16,8.42,4.13.96,7.03,3.98,7.97,8.03,1.22,5.26.22,9.25-2.2,12.59-2.63,3.66-7.36,5.97-12.75,7.21-4.72,1.09-9.07,1.32-12.69.1-4.77-1.59-8.22-5.13-9.67-11.4-.58-2.49-.55-5.13.08-7.62,1.76-6.52,5.83-9.8,14.12-11.72l14.9-3.45c2.63-.61,3.16-2.01,2.91-3.09-.33-1.42-1.41-2.09-2.58-2.24l-.26-1.15ZM24.93,285.92c-8.9,2.06-13.55,4.98-11.83,12.4,1.61,6.94,6.73,7.61,12.67,6.23l10.11-2.34c9.71-2.25,13.83-5.33,12.3-11.94-1.31-5.66-6.52-8.22-10.5-7.3l-12.74,2.95Z"/>
  <path class="cls-1" d="M40.31,229.65c1.68.57,3.32,1.98,3.41,5.09.23,7.47-5.65,7.65-9.39,7.77l-16.81.52c-6.02.19-10.65,2.68-10.49,7.87.2,6.5,6.56,8.52,10.58,8.4l25.04-.77-.09-2.97.97-.03.38,12.18-.97.03-.09-2.98-34.52,1.07.09,2.98-1.04.03-.28-9.2,5.12-.16c-3.44-1.35-6.3-4.38-6.45-9.36-.27-8.65,6.1-13.21,14.2-13.46l19.03-.59c2.84-.09,3.49-1.42,3.45-2.53-.04-1.45-.97-2.32-2.09-2.77l-.03-1.11Z"/>
  <path class="cls-1" d="M46.8,190.07c1.46.94,2.87,2.58,2.37,5.65-.84,5.12-4.03,6.21-7.05,6.21,3.45,2.46,4.99,6.36,4.32,10.46-.87,5.33-3.31,8.64-6.82,10.8-3.83,2.39-9.07,2.72-14.54,1.82-4.78-.78-8.89-2.23-11.78-4.74-3.81-3.29-5.65-7.87-4.61-14.22.42-2.53,1.44-4.95,2.97-7.02,4.1-5.36,9.12-6.85,17.52-5.47l15.09,2.48c2.66.44,3.68-.66,3.86-1.75.24-1.43-.51-2.47-1.53-3.06l.19-1.16ZM25.43,199.33c-9.02-1.48-14.43-.54-15.66,6.97-1.15,7.03,3.34,9.59,9.35,10.58l10.24,1.68c9.83,1.61,14.82.33,15.91-6.37.94-5.74-2.91-10.08-6.93-10.75l-12.91-2.12Z"/>
  <path class="cls-1" d="M60.8,153.75c1.34,1.17,2.32,3.08,1.23,6-2.62,7-8.13,4.94-11.63,3.64l-15.75-5.88c-5.64-2.11-10.87-1.55-12.69,3.31-2.28,6.09,2.85,10.37,6.61,11.78l23.47,8.77,1.04-2.79.91.34-4.26,11.41-.91-.34,1.04-2.79L2.01,169.33l-1.04,2.79-.97-.36,3.22-8.62,20.29,7.58c-2.67-2.55-4.17-6.43-2.43-11.1,3.03-8.1,10.65-9.91,18.23-7.08l17.83,6.66c2.66.99,3.77,0,4.15-1.03.51-1.36-.02-2.52-.89-3.36l.39-1.04Z"/>
  <path class="cls-1" d="M81.92,119.64c.99,1.43,1.68,3.48.04,6.13-2.73,4.42-6.1,4.21-8.88,3.05,2.26,3.59,2.19,7.78,0,11.31-2.84,4.59-6.36,6.73-10.43,7.39-4.45.75-9.43-.94-14.14-3.85-4.12-2.55-7.37-5.45-9.08-8.87-2.27-4.49-2.23-9.43,1.16-14.91,1.35-2.18,3.22-4.03,5.42-5.35,5.84-3.39,11.04-2.86,18.29,1.62l13.01,8.04c2.3,1.42,3.66.8,4.24-.15.76-1.24.47-2.48-.25-3.41l.62-1ZM58.63,120.05c-7.77-4.8-13.13-6-17.14.48-3.75,6.06-.57,10.14,4.61,13.35l8.83,5.46c8.48,5.24,13.58,5.95,17.14.18,3.06-4.95,1.16-10.43-2.32-12.58l-11.13-6.88Z"/>
  <path class="cls-1" d="M109.13,90.92c.79,1.59.97,3.74-1.16,6.02-5.09,5.47-9.4,1.46-12.14-1.08l-12.31-11.46c-4.41-4.1-9.46-5.59-12.99-1.79-4.43,4.76-1.33,10.68,1.61,13.41l18.34,17.07,2.03-2.18.71.66-8.3,8.92-.71-.66,2.03-2.18-25.28-23.54-2.03,2.18-.76-.71,6.27-6.74,3.75,3.49c-1.49-3.38-1.4-7.54,2-11.19,5.9-6.33,13.63-5.09,19.56.43l13.93,12.97c2.08,1.93,3.48,1.44,4.23.63.99-1.06.95-2.34.46-3.44l.75-.81Z"/>
  <path class="cls-1" d="M141.64,67.39c.37,1.7.23,3.85-2.3,5.68-4.21,3.05-7.24,1.57-9.38-.56.72,4.18-.94,8.03-4.3,10.47-4.37,3.17-8.44,3.81-12.45,2.87-4.4-1-8.36-4.46-11.61-8.94-2.84-3.92-4.74-7.85-5.03-11.66-.39-5.02,1.53-9.57,6.74-13.35,2.07-1.5,4.51-2.5,7.05-2.89,6.69-.91,11.3,1.56,16.29,8.45l8.97,12.39c1.58,2.19,3.08,2.13,3.98,1.48,1.18-.85,1.38-2.11,1.06-3.25l.95-.69ZM119.95,58.91c-5.36-7.4-9.86-10.55-16.03-6.08-5.77,4.18-4.39,9.16-.82,14.1l6.09,8.41c5.85,8.07,10.29,10.67,15.78,6.69,4.71-3.41,5.04-9.21,2.65-12.51l-7.67-10.6Z"/>
  <path class="cls-1" d="M177.13,51.42c.13,1.77-.52,3.82-3.35,5.13-6.78,3.14-9.25-2.2-10.82-5.59l-7.06-15.27c-2.53-5.47-6.64-8.75-11.35-6.57-5.9,2.73-5.27,9.38-3.59,13.02l10.52,22.74,2.7-1.25.41.88-11.06,5.11-.41-.88,2.7-1.25-21.44-46.36-2.7,1.25-.44-.94,8.36-3.86,9.09,19.66c-.1-3.69,1.56-7.51,6.08-9.6,7.85-3.63,14.54.44,17.94,7.79l7.99,17.28c1.19,2.58,2.67,2.65,3.68,2.19,1.32-.61,1.76-1.8,1.73-3.01l1.01-.46Z"/>
  <path class="cls-1" d="M216.13,42.04c-.3,1.71-1.26,3.65-4.29,4.38-5.05,1.22-7.29-1.3-8.46-4.08-.92,4.14-3.92,7.07-7.96,8.04-5.25,1.27-9.25.31-12.61-2.09-3.69-2.6-6.03-7.3-7.33-12.69-1.13-4.71-1.4-9.06-.21-12.69,1.55-4.79,5.06-8.27,11.31-9.78,2.49-.6,5.13-.59,7.62.01,6.53,1.7,9.86,5.74,11.85,14.02l3.58,14.87c.63,2.62,2.04,3.14,3.12,2.88,1.41-.34,2.08-1.43,2.22-2.6l1.14-.28ZM199.29,25.95c-2.14-8.88-5.11-13.51-12.51-11.72-6.93,1.67-7.54,6.8-6.12,12.72l2.43,10.09c2.34,9.69,5.46,13.78,12.05,12.19,5.65-1.36,8.17-6.6,7.21-10.57l-3.07-12.72Z"/>
  <path class="cls-1" d="M255.69,40.83c-.56,1.68-1.95,3.33-5.06,3.46-7.47.3-7.7-5.58-7.85-9.32l-.67-16.8c-.24-6.02-2.78-10.63-7.96-10.42-6.5.26-8.46,6.64-8.3,10.65l.99,25.03,2.97-.12.04.97-12.17.48-.04-.97,2.97-.12-1.37-34.51-2.97.12-.04-1.04,9.2-.37.2,5.12c1.32-3.45,4.32-6.34,9.3-6.53,8.64-.34,13.26,5.98,13.58,14.08l.75,19.02c.11,2.84,1.45,3.47,2.56,3.43,1.45-.06,2.32-.99,2.76-2.12l1.11-.04Z"/>
  <path class="cls-1" d="M295.34,46.96c-.93,1.47-2.55,2.9-5.63,2.42-5.13-.79-6.25-3.98-6.27-7-2.43,3.48-6.31,5.05-10.42,4.41-5.34-.83-8.67-3.23-10.87-6.73-2.42-3.81-2.8-9.05-1.96-14.52.74-4.79,2.15-8.91,4.63-11.82,3.26-3.84,7.82-5.72,14.18-4.74,2.53.39,4.97,1.4,7.04,2.91,5.4,4.06,6.93,9.06,5.63,17.47l-2.34,15.12c-.41,2.67.69,3.68,1.79,3.85,1.44.22,2.46-.53,3.04-1.56l1.16.18ZM285.88,25.68c1.4-9.03.41-14.44-7.11-15.6-7.05-1.09-9.57,3.42-10.5,9.44l-1.59,10.26c-1.52,9.85-.19,14.82,6.51,15.86,5.75.89,10.06-3,10.68-7.03l2-12.93Z"/>
  <path class="cls-1" d="M331.78,60.64c-1.15,1.35-3.06,2.35-5.99,1.28-7.03-2.55-5.02-8.08-3.74-11.59l5.74-15.81c2.06-5.66,1.45-10.89-3.43-12.66-6.11-2.22-10.35,2.94-11.72,6.71l-8.56,23.55,2.8,1.02-.33.91-11.45-4.16.33-.91,2.8,1.02L315.68,1.99l-2.8-1.02.35-.98,8.65,3.14-7.4,20.36c2.52-2.69,6.4-4.23,11.08-2.53,8.13,2.95,10.01,10.56,7.24,18.17l-6.5,17.89c-.97,2.67.03,3.77,1.07,4.15,1.37.5,2.52-.04,3.35-.92l1.04.38Z"/>
  <path class="cls-1" d="M366.07,81.44c-1.42,1-3.46,1.71-6.13.09-4.44-2.69-4.26-6.06-3.13-8.86-3.57,2.29-7.76,2.26-11.31.11-4.62-2.8-6.79-6.3-7.48-10.36-.79-4.44.86-9.43,3.73-14.17,2.51-4.14,5.38-7.42,8.79-9.16,4.47-2.31,9.41-2.31,14.92,1.02,2.19,1.33,4.06,3.19,5.4,5.38,3.44,5.81,2.96,11.02-1.45,18.3l-7.92,13.08c-1.4,2.31-.76,3.66.18,4.24,1.24.75,2.48.45,3.41-.28l1.01.61ZM365.44,58.15c4.73-7.81,5.88-13.19-.63-17.13-6.1-3.69-10.15-.48-13.3,4.73l-5.38,8.88c-5.16,8.53-5.83,13.63-.02,17.14,4.97,3.01,10.44,1.06,12.56-2.43l6.78-11.19Z"/>
  <path class="cls-1" d="M395.05,108.4c-1.58.81-3.73,1-6.03-1.1-5.52-5.04-1.55-9.39.98-12.15l11.35-12.41c4.06-4.44,5.5-9.51,1.67-13.01-4.8-4.39-10.69-1.24-13.4,1.73l-16.91,18.49,2.2,2.01-.65.72-8.99-8.22.65-.71,2.2,2.01,23.31-25.49-2.2-2.01.7-.77,6.79,6.21-3.46,3.78c3.36-1.52,7.53-1.46,11.21,1.9,6.39,5.84,5.21,13.58-.25,19.56l-12.84,14.05c-1.92,2.09-1.41,3.49-.59,4.24,1.07.98,2.34.92,3.45.43l.82.75Z"/>
  <path class="cls-1" d="M418.87,140.71c-1.69.39-3.85.26-5.7-2.25-3.08-4.18-1.63-7.23.47-9.38-4.17.76-8.04-.87-10.5-4.21-3.21-4.34-3.88-8.41-2.98-12.43.96-4.41,4.38-8.4,8.84-11.68,3.9-2.88,7.8-4.81,11.61-5.13,5.01-.43,9.58,1.45,13.4,6.62,1.52,2.06,2.54,4.49,2.95,7.03.97,6.68-1.46,11.31-8.31,16.37l-12.31,9.08c-2.17,1.6-2.1,3.1-1.44,3.99.86,1.17,2.12,1.36,3.26,1.04l.7.95ZM427.15,118.94c7.35-5.42,10.46-9.95,5.94-16.08-4.23-5.74-9.2-4.31-14.1-.69l-8.35,6.16c-8.02,5.92-10.57,10.38-6.55,15.84,3.45,4.68,9.25,4.96,12.54,2.53l10.53-7.77Z"/>
  <path class="cls-1" d="M435.15,176.04c-1.77.15-3.83-.48-5.16-3.3-3.2-6.76,2.12-9.27,5.5-10.87l15.2-7.2c5.44-2.58,8.69-6.72,6.47-11.41-2.78-5.88-9.42-5.19-13.05-3.47l-22.65,10.72,1.27,2.69-.88.41-5.21-11.01.88-.41,1.27,2.69,46.17-21.86-1.27-2.69.94-.44,3.94,8.32-19.58,9.27c3.69-.14,7.52,1.49,9.66,6,3.7,7.82-.31,14.55-7.63,18.01l-17.2,8.15c-2.56,1.21-2.63,2.7-2.15,3.7.62,1.31,1.82,1.74,3.03,1.71l.47,1Z"/>
  <path class="cls-1" d="M444.89,214.95c-1.71-.28-3.66-1.22-4.42-4.24-1.26-5.04,1.24-7.3,4.01-8.5-4.15-.89-7.1-3.86-8.11-7.88-1.31-5.24-.39-9.25,1.97-12.63,2.57-3.71,7.25-6.1,12.62-7.44,4.7-1.18,9.05-1.48,12.69-.33,4.8,1.51,8.31,4.98,9.88,11.22.62,2.48.64,5.12.05,7.62-1.64,6.55-5.65,9.91-13.91,11.98l-14.84,3.72c-2.62.66-3.12,2.07-2.85,3.14.35,1.41,1.45,2.06,2.62,2.2l.29,1.14ZM460.82,197.96c8.86-2.22,13.46-5.23,11.61-12.61-1.73-6.92-6.87-7.48-12.78-6l-10.07,2.52c-9.67,2.42-13.73,5.58-12.08,12.16,1.41,5.64,6.67,8.1,10.63,7.11l12.69-3.18Z"/>
  <path class="cls-1" d="M446.45,254.5c-1.69-.54-3.35-1.92-3.5-5.03-.36-7.47,5.51-7.75,9.25-7.94l16.8-.82c6.01-.29,10.6-2.87,10.35-8.06-.32-6.5-6.72-8.4-10.73-8.21l-25.03,1.22.14,2.97-.97.05-.59-12.17.97-.05.15,2.97,34.5-1.68-.14-2.97,1.04-.05.45,9.2-5.12.25c3.46,1.29,6.38,4.26,6.62,9.24.42,8.64-5.87,13.31-13.95,13.71l-19.01.93c-2.83.14-3.46,1.49-3.41,2.59.07,1.45,1.01,2.31,2.14,2.74l.05,1.11Z"/>
  <path class="cls-1" d="M440.67,294.19c-1.48-.91-2.92-2.52-2.47-5.61.75-5.14,3.92-6.28,6.94-6.34-3.5-2.4-5.1-6.27-4.51-10.38.78-5.34,3.15-8.7,6.62-10.93,3.79-2.46,9.02-2.88,14.5-2.09,4.79.7,8.93,2.07,11.86,4.52,3.87,3.22,5.79,7.77,4.87,14.14-.37,2.53-1.35,4.98-2.85,7.07-4.01,5.43-9,7.02-17.42,5.79l-15.14-2.2c-2.67-.39-3.67.73-3.83,1.82-.21,1.44.55,2.46,1.59,3.03l-.17,1.16ZM461.87,284.55c9.04,1.31,14.44.28,15.53-7.25,1.03-7.06-3.51-9.53-9.54-10.41l-10.27-1.49c-9.86-1.43-14.82-.06-15.8,6.66-.84,5.75,3.09,10.03,7.13,10.62l12.95,1.88Z"/>
  <path class="cls-1" d="M427.33,330.77c-1.36-1.14-2.38-3.04-1.34-5.98,2.49-7.05,8.04-5.09,11.56-3.85l15.86,5.6c5.68,2,10.9,1.35,12.63-3.54,2.17-6.13-3.04-10.32-6.82-11.66l-23.62-8.34-.99,2.81-.91-.32,4.05-11.49.91.32-.99,2.81,48.16,17,.99-2.81.98.35-3.06,8.68-20.43-7.21c2.71,2.5,4.29,6.36,2.63,11.06-2.88,8.16-10.47,10.1-18.1,7.41l-17.95-6.34c-2.68-.94-3.77.06-4.13,1.11-.48,1.37.06,2.52.95,3.34l-.37,1.04Z"/>
  <path class="cls-1" d="M406.85,365.24c-1.02-1.41-1.74-3.45-.15-6.12,2.65-4.46,6.02-4.31,8.83-3.21-2.32-3.55-2.33-7.74-.21-11.31,2.75-4.64,6.23-6.84,10.29-7.58,4.44-.83,9.44.77,14.2,3.6,4.17,2.47,7.47,5.32,9.24,8.7,2.35,4.45,2.4,9.39-.89,14.92-1.31,2.2-3.15,4.09-5.33,5.45-5.77,3.49-10.99,3.06-18.31-1.29l-13.16-7.8c-2.32-1.38-3.67-.73-4.24.22-.74,1.25-.43,2.48.31,3.41l-.6,1.01ZM430.12,364.39c7.86,4.66,13.24,5.76,17.12-.79,3.64-6.13.39-10.15-4.85-13.26l-8.93-5.3c-8.57-5.08-13.68-5.7-17.14.13-2.97,5-.97,10.45,2.54,12.53l11.25,6.67Z"/>
  <path class="cls-1" d="M380.13,394.46c-.82-1.57-1.03-3.72,1.05-6.04,5-5.56,9.37-1.63,12.15.87l12.51,11.24c4.48,4.02,9.55,5.42,13.02,1.56,4.35-4.84,1.14-10.7-1.85-13.38l-18.64-16.74-1.99,2.21-.72-.65,8.14-9.06.72.65-1.99,2.21,25.7,23.08,1.99-2.21.77.69-6.15,6.85-3.81-3.42c1.55,3.35,1.53,7.52-1.8,11.22-5.78,6.44-13.54,5.33-19.56-.08l-14.16-12.72c-2.11-1.9-3.51-1.38-4.25-.56-.97,1.08-.9,2.35-.4,3.45l-.74.82Z"/>
  <path class="cls-1" d="M348.05,418.57c-.4-1.69-.3-3.85,2.19-5.72,4.15-3.12,7.21-1.7,9.38.39-.79-4.17.79-8.04,4.11-10.54,4.31-3.24,8.37-3.96,12.4-3.09,4.42.92,8.44,4.31,11.76,8.73,2.91,3.87,4.88,7.76,5.23,11.56.48,5.01-1.36,9.59-6.5,13.46-2.05,1.54-4.47,2.58-7,3.01-6.67,1.03-11.32-1.36-16.44-8.16l-9.19-12.22c-1.62-2.16-3.12-2.07-4-1.41-1.16.87-1.34,2.13-1.01,3.27l-.94.71ZM369.89,426.66c5.49,7.3,10.05,10.37,16.13,5.79,5.7-4.28,4.22-9.24.56-14.11l-6.24-8.3c-5.99-7.96-10.48-10.48-15.9-6.4-4.65,3.49-4.88,9.29-2.42,12.56l7.86,10.45Z"/>
</svg>