<?xml version="1.0" encoding="UTF-8"?>
<svg id="_レイヤー_1" data-name="レイヤー 1" xmlns="http://www.w3.org/2000/svg" viewBox="0 0 500 500">
  <defs>
    <style>
      .cls-1 {
        fill: #a65871;
      }
    </style>
  </defs>
  <path class="cls-1" d="M313.6,449.67c-.1-1.82.6-3.92,3.53-5.21,7.01-3.1,9.44,2.44,10.99,5.95l6.95,15.82c2.49,5.66,6.64,9.11,11.51,6.96,6.1-2.7,5.58-9.54,3.92-13.31l-10.36-23.56-2.79,1.23-.4-.91,11.43-5.05.4.91-2.79,1.23,21.11,48.04,2.79-1.23.43.98-8.63,3.81-8.95-20.37c.04,3.79-1.74,7.69-6.41,9.75-8.12,3.58-14.89-.73-18.24-8.34l-7.87-17.9c-1.17-2.67-2.69-2.77-3.73-2.32-1.36.6-1.84,1.82-1.83,3.06l-1.04.46Z"/>
  <path class="cls-1" d="M273.47,458.58c.34-1.75,1.36-3.73,4.47-4.42,5.19-1.16,7.45,1.48,8.59,4.35,1.02-4.24,4.15-7.19,8.3-8.11,5.4-1.2,9.49-.14,12.88,2.38,3.73,2.74,6.05,7.62,7.28,13.17,1.08,4.86,1.27,9.34-.02,13.05-1.68,4.89-5.33,8.4-11.78,9.83-2.56.57-5.26.52-7.81-.16-6.66-1.87-9.99-6.08-11.89-14.62l-3.4-15.35c-.6-2.71-2.03-3.26-3.14-3.02-1.45.32-2.15,1.43-2.32,2.63l-1.18.26ZM290.42,475.42c2.03,9.17,4.98,13.97,12.6,12.28,7.13-1.59,7.86-6.85,6.5-12.96l-2.31-10.42c-2.21-10-5.34-14.26-12.12-12.75-5.82,1.3-8.49,6.63-7.58,10.72l2.91,13.12Z"/>
  <path class="cls-1" d="M232.87,459.11c.6-1.72,2.05-3.39,5.25-3.46,7.66-.17,7.79,5.88,7.88,9.72l.38,17.28c.14,6.19,2.65,10.97,7.97,10.85,6.67-.15,8.79-6.67,8.7-10.79l-.57-25.74-3.05.07-.02-1,12.48-.28.02,1-3.05.07.78,35.49,3.05-.07.02,1.07-9.43.21-.12-5.26c-1.41,3.52-4.54,6.43-9.65,6.55-8.87.2-13.48-6.39-13.66-14.71l-.43-19.56c-.06-2.92-1.43-3.6-2.56-3.57-1.49.03-2.39.98-2.86,2.13l-1.14.03Z"/>
  <path class="cls-1" d="M192.36,452.06c.98-1.49,2.67-2.93,5.81-2.38,5.24.91,6.33,4.2,6.3,7.3,2.55-3.53,6.56-5.07,10.76-4.34,5.45.95,8.83,3.48,11.01,7.11,2.41,3.96,2.7,9.35,1.73,14.96-.85,4.91-2.37,9.12-4.96,12.06-3.41,3.88-8.12,5.73-14.62,4.6-2.59-.45-5.06-1.53-7.16-3.12-5.45-4.27-6.94-9.44-5.44-18.05l2.68-15.49c.47-2.73-.64-3.79-1.76-3.99-1.47-.26-2.53.5-3.15,1.55l-1.19-.21ZM201.65,474.11c-1.6,9.25-.69,14.82,7,16.16,7.2,1.25,9.86-3.34,10.93-9.5l1.82-10.51c1.75-10.09.47-15.22-6.38-16.41-5.87-1.02-10.36,2.89-11.08,7.03l-2.29,13.25Z"/>
  <path class="cls-1" d="M155.27,437.34c1.21-1.36,3.18-2.36,6.16-1.21,7.15,2.75,4.99,8.4,3.62,11.98l-6.18,16.14c-2.21,5.78-1.69,11.16,3.28,13.07,6.23,2.4,10.66-2.83,12.14-6.68l9.21-24.04-2.85-1.1.36-.93,11.66,4.49-.36.93-2.85-1.1-18.77,49.01,2.85,1.1-.38,1-8.81-3.39,7.96-20.79c-2.64,2.72-6.64,4.23-11.4,2.39-8.28-3.19-10.06-11.04-7.09-18.81l6.99-18.26c1.04-2.72.04-3.87-1.02-4.28-1.39-.54-2.58,0-3.45.88l-1.06-.41Z"/>
  <path class="cls-1" d="M120.53,415.35c1.47-1,3.58-1.69,6.28.02,4.5,2.84,4.25,6.3,3.05,9.16,3.7-2.29,7.99-2.18,11.6.1,4.68,2.96,6.84,6.59,7.48,10.78.73,4.58-1.05,9.68-4.08,14.49-2.65,4.21-5.65,7.53-9.17,9.25-4.63,2.29-9.69,2.2-15.27-1.33-2.22-1.4-4.1-3.35-5.44-5.62-3.42-6.03-2.83-11.37,1.83-18.77l8.36-13.3c1.48-2.35.85-3.75-.11-4.36-1.26-.8-2.53-.51-3.5.23l-1.02-.64ZM120.74,439.28c-4.99,7.94-6.27,13.44.33,17.61,6.18,3.91,10.39.68,13.72-4.61l5.68-9.03c5.45-8.66,6.22-13.89.34-17.61-5.04-3.19-10.68-1.29-12.91,2.26l-7.15,11.37Z"/>
  <path class="cls-1" d="M91.31,387.1c1.63-.8,3.84-.96,6.16,1.24,5.56,5.28,1.41,9.67-1.22,12.46l-11.86,12.54c-4.25,4.49-5.81,9.66-1.95,13.33,4.84,4.6,10.93,1.47,13.76-1.53l17.67-18.69-2.21-2.1.68-.72,9.06,8.61-.68.72-2.21-2.1-24.35,25.76,2.21,2.1-.73.77-6.85-6.51,3.61-3.82c-3.47,1.5-7.74,1.37-11.45-2.16-6.44-6.12-5.09-14.05.62-20.09l13.42-14.2c2-2.12,1.51-3.56.69-4.35-1.08-1.03-2.39-.99-3.53-.51l-.82-.78Z"/>
  <path class="cls-1" d="M67.5,353.49c1.74-.37,3.95-.2,5.8,2.41,3.08,4.35,1.54,7.45-.66,9.63,4.29-.7,8.22,1.04,10.69,4.51,3.21,4.52,3.82,8.71,2.82,12.82-1.07,4.51-4.65,8.55-9.27,11.84-4.05,2.88-8.09,4.8-11.99,5.06-5.15.35-9.79-1.66-13.62-7.05-1.52-2.14-2.52-4.66-2.89-7.27-.88-6.88,1.7-11.6,8.81-16.67l12.78-9.11c2.26-1.61,2.21-3.15,1.55-4.07-.86-1.22-2.15-1.44-3.32-1.12l-.7-.99ZM58.61,375.7c-7.63,5.44-10.9,10.04-6.38,16.41,4.23,5.97,9.35,4.59,14.44.97l8.67-6.18c8.33-5.93,11.02-10.48,7-16.16-3.45-4.87-9.39-5.26-12.8-2.83l-10.93,7.79Z"/>
  <path class="cls-1" d="M51.46,316.85c1.81-.12,3.91.57,5.23,3.49,3.15,7-2.34,9.49-5.84,11.07l-15.71,7.11c-5.63,2.55-9.03,6.74-6.84,11.6,2.74,6.09,9.56,5.51,13.31,3.81l23.41-10.59-1.26-2.79.9-.41,5.14,11.41-.91.41-1.25-2.79-47.72,21.59,1.25,2.79-.97.44-3.88-8.62,20.24-9.16c-3.78.07-7.68-1.67-9.78-6.34-3.65-8.1.59-14.94,8.16-18.36l17.78-8.05c2.65-1.2,2.74-2.72,2.28-3.76-.61-1.36-1.83-1.82-3.07-1.81l-.47-1.04Z"/>
  <path class="cls-1" d="M42.2,276.69c1.75.32,3.73,1.32,4.45,4.44,1.2,5.2-1.4,7.48-4.26,8.66,4.23.99,7.21,4.09,8.17,8.25,1.25,5.4.23,9.51-2.26,12.93-2.7,3.77-7.54,6.13-13.07,7.41-4.84,1.12-9.3,1.35-13.01.1-4.89-1.64-8.43-5.27-9.91-11.72-.59-2.56-.56-5.27.09-7.83,1.8-6.7,5.97-10.08,14.48-12.05l15.27-3.55c2.7-.63,3.24-2.07,2.98-3.17-.34-1.46-1.44-2.15-2.64-2.31l-.27-1.18ZM25.55,293.84c-9.12,2.12-13.89,5.12-12.13,12.75,1.65,7.14,6.9,7.82,12.98,6.4l10.37-2.41c9.95-2.31,14.17-5.48,12.6-12.27-1.34-5.82-6.68-8.45-10.76-7.5l-13.06,3.03Z"/>
  <path class="cls-1" d="M41.32,236.01c1.72.59,3.4,2.03,3.5,5.23.24,7.68-5.79,7.87-9.62,7.98l-17.23.53c-6.17.19-10.92,2.76-10.75,8.09.21,6.68,6.73,8.76,10.84,8.63l25.67-.79-.09-3.06.99-.03.39,12.51-.99.03-.09-3.06-35.39,1.1.09,3.06-1.06.03-.29-9.46,5.25-.16c-3.52-1.39-6.46-4.5-6.61-9.62-.27-8.89,6.25-13.57,14.55-13.83l19.5-.6c2.91-.09,3.58-1.46,3.54-2.6-.05-1.49-1-2.39-2.15-2.85l-.04-1.14Z"/>
  <path class="cls-1" d="M47.97,195.33c1.5.97,2.95,2.65,2.43,5.8-.86,5.26-4.14,6.38-7.23,6.38,3.54,2.53,5.11,6.53,4.42,10.75-.9,5.47-3.39,8.88-6.99,11.1-3.92,2.45-9.3,2.8-14.9,1.87-4.9-.81-9.11-2.29-12.07-4.87-3.9-3.38-5.79-8.09-4.73-14.62.43-2.6,1.48-5.09,3.05-7.21,4.21-5.51,9.35-7.04,17.96-5.62l15.47,2.54c2.73.45,3.78-.68,3.96-1.8.24-1.47-.52-2.54-1.57-3.14l.2-1.19ZM26.07,204.85c-9.24-1.52-14.79-.56-16.05,7.16-1.18,7.23,3.42,9.86,9.58,10.87l10.5,1.73c10.08,1.66,15.19.33,16.31-6.54.96-5.9-2.98-10.36-7.11-11.04l-13.23-2.18Z"/>
  <path class="cls-1" d="M62.32,158.01c1.37,1.2,2.38,3.17,1.26,6.17-2.68,7.2-8.33,5.08-11.92,3.74l-16.15-6.05c-5.78-2.17-11.15-1.59-13.01,3.41-2.33,6.26,2.92,10.66,6.77,12.1l24.06,9.01,1.07-2.87.93.35-4.37,11.73-.93-.35,1.07-2.86L2.06,174.02l-1.07,2.86-1-.37,3.3-8.86,20.8,7.79c-2.74-2.62-4.28-6.61-2.49-11.41,3.1-8.33,10.91-10.19,18.69-7.28l18.28,6.84c2.72,1.02,3.86,0,4.26-1.06.52-1.4-.02-2.59-.91-3.45l.4-1.07Z"/>
  <path class="cls-1" d="M83.96,122.95c1.02,1.47,1.72,3.57.04,6.3-2.8,4.54-6.25,4.32-9.11,3.14,2.31,3.69,2.24,8,0,11.63-2.91,4.72-6.52,6.92-10.69,7.59-4.56.77-9.66-.97-14.49-3.96-4.23-2.62-7.56-5.6-9.31-9.12-2.32-4.62-2.28-9.69,1.19-15.32,1.38-2.24,3.3-4.14,5.56-5.5,5.98-3.48,11.32-2.94,18.74,1.66l13.34,8.27c2.35,1.46,3.75.82,4.35-.15.78-1.27.48-2.54-.26-3.51l.63-1.03ZM60.09,123.38c-7.97-4.94-13.46-6.17-17.57.49-3.84,6.23-.59,10.42,4.72,13.72l9.05,5.61c8.69,5.39,13.91,6.11,17.57.18,3.13-5.08,1.19-10.72-2.37-12.93l-11.41-7.07Z"/>
  <path class="cls-1" d="M111.86,93.44c.81,1.63.99,3.84-1.19,6.18-5.22,5.62-9.64,1.5-12.44-1.11l-12.62-11.78c-4.52-4.22-9.69-5.74-13.32-1.84-4.54,4.89-1.37,10.97,1.65,13.78l18.8,17.55,2.08-2.24.73.68-8.51,9.16-.73-.68,2.08-2.24-25.91-24.19-2.08,2.24-.78-.73,6.43-6.92,3.84,3.59c-1.53-3.47-1.43-7.75,2.05-11.5,6.04-6.51,13.97-5.23,20.05.44l14.28,13.33c2.13,1.99,3.57,1.48,4.34.65,1.02-1.09.97-2.4.48-3.54l.77-.83Z"/>
  <path class="cls-1" d="M145.19,69.25c.38,1.74.23,3.96-2.35,5.84-4.31,3.13-7.42,1.61-9.61-.57.74,4.3-.96,8.25-4.41,10.76-4.48,3.25-8.65,3.91-12.77,2.95-4.51-1.03-8.57-4.58-11.9-9.19-2.91-4.03-4.86-8.06-5.15-11.98-.4-5.16,1.57-9.83,6.91-13.72,2.13-1.54,4.63-2.57,7.23-2.97,6.86-.94,11.58,1.6,16.7,8.69l9.2,12.73c1.62,2.25,3.16,2.19,4.08,1.52,1.21-.88,1.41-2.17,1.09-3.34l.98-.71ZM122.95,60.54c-5.49-7.6-10.11-10.84-16.43-6.25-5.92,4.3-4.5,9.42-.84,14.49l6.24,8.64c5.99,8.3,10.55,10.96,16.18,6.87,4.83-3.51,5.17-9.46,2.71-12.86l-7.87-10.89Z"/>
  <path class="cls-1" d="M181.56,52.84c.14,1.82-.53,3.93-3.43,5.27-6.95,3.22-9.49-2.26-11.09-5.75l-7.24-15.69c-2.59-5.62-6.8-8.99-11.63-6.75-6.05,2.81-5.4,9.64-3.68,13.38l10.78,23.37,2.77-1.28.42.9-11.33,5.25-.42-.9,2.77-1.28-21.98-47.65-2.77,1.28-.45-.97,8.56-3.97,9.32,20.21c-.11-3.79,1.6-7.72,6.24-9.87,8.05-3.73,14.9.46,18.39,8.01l8.19,17.75c1.22,2.65,2.74,2.73,3.77,2.25,1.35-.63,1.8-1.85,1.78-3.1l1.03-.48Z"/>
  <path class="cls-1" d="M221.53,43.2c-.31,1.76-1.29,3.75-4.39,4.5-5.17,1.25-7.47-1.34-8.67-4.2-.95,4.25-4.02,7.26-8.16,8.26-5.38,1.3-9.48.32-12.92-2.15-3.78-2.67-6.18-7.51-7.51-13.04-1.16-4.84-1.44-9.31-.22-13.05,1.59-4.92,5.18-8.5,11.6-10.05,2.55-.62,5.25-.61,7.81.01,6.7,1.75,10.1,5.9,12.15,14.41l3.67,15.28c.65,2.7,2.09,3.23,3.19,2.96,1.45-.35,2.13-1.47,2.28-2.67l1.17-.28ZM204.27,26.67c-2.19-9.13-5.23-13.88-12.82-12.05-7.1,1.72-7.73,6.99-6.27,13.08l2.49,10.37c2.39,9.96,5.59,14.16,12.35,12.53,5.79-1.4,8.37-6.78,7.39-10.86l-3.14-13.07Z"/>
  <path class="cls-1" d="M262.09,41.96c-.57,1.73-1.99,3.42-5.18,3.55-7.66.3-7.89-5.74-8.05-9.57l-.68-17.27c-.25-6.18-2.85-10.92-8.16-10.71-6.66.27-8.67,6.82-8.51,10.94l1.02,25.73,3.05-.12.04,1-12.47.5-.04-1,3.05-.12-1.4-35.46-3.05.12-.04-1.07,9.43-.38.21,5.26c1.35-3.54,4.43-6.51,9.53-6.71,8.86-.35,13.59,6.15,13.92,14.46l.77,19.54c.12,2.91,1.49,3.57,2.62,3.53,1.49-.06,2.37-1.02,2.82-2.18l1.13-.05Z"/>
  <path class="cls-1" d="M302.73,48.27c-.95,1.51-2.61,2.98-5.77,2.49-5.26-.82-6.4-4.09-6.43-7.19-2.49,3.57-6.47,5.19-10.68,4.53-5.47-.85-8.89-3.32-11.14-6.91-2.48-3.91-2.87-9.3-2-14.92.76-4.92,2.2-9.16,4.75-12.15,3.34-3.95,8.02-5.88,14.54-4.87,2.59.4,5.09,1.44,7.22,2.99,5.53,4.17,7.11,9.31,5.77,17.96l-2.4,15.54c-.42,2.74.71,3.78,1.83,3.96,1.47.23,2.53-.54,3.12-1.6l1.19.19ZM293.04,26.39c1.43-9.28.42-14.83-7.29-16.03-7.22-1.12-9.8,3.52-10.76,9.7l-1.63,10.54c-1.56,10.12-.2,15.23,6.67,16.3,5.89.91,10.31-3.08,10.95-7.23l2.05-13.29Z"/>
  <path class="cls-1" d="M340.08,62.32c-1.18,1.39-3.14,2.41-6.14,1.32-7.2-2.62-5.14-8.31-3.83-11.92l5.89-16.24c2.11-5.82,1.49-11.19-3.51-13.01-6.27-2.28-10.61,3.02-12.01,6.9l-8.77,24.2,2.87,1.04-.34.94-11.74-4.28.34-.94,2.87,1.04,17.88-49.34-2.87-1.04.36-1,8.87,3.23-7.58,20.92c2.59-2.77,6.56-4.35,11.36-2.6,8.33,3.04,10.26,10.85,7.42,18.67l-6.66,18.38c-.99,2.74.03,3.87,1.1,4.26,1.4.51,2.58-.04,3.44-.94l1.07.39Z"/>
  <path class="cls-1" d="M375.23,83.69c-1.45,1.03-3.55,1.75-6.28.1-4.55-2.76-4.37-6.23-3.21-9.1-3.66,2.35-7.96,2.32-11.6.11-4.73-2.87-6.96-6.47-7.67-10.65-.81-4.57.88-9.69,3.82-14.56,2.57-4.26,5.52-7.63,9.01-9.42,4.59-2.37,9.65-2.38,15.29,1.05,2.25,1.36,4.16,3.27,5.54,5.52,3.53,5.97,3.03,11.32-1.49,18.81l-8.12,13.45c-1.43,2.37-.78,3.77.19,4.36,1.27.77,2.54.46,3.49-.29l1.03.63ZM374.59,59.76c4.85-8.03,6.03-13.55-.64-17.61-6.25-3.8-10.4-.49-13.64,4.86l-5.51,9.13c-5.29,8.76-5.97,14-.03,17.62,5.1,3.1,10.7,1.09,12.87-2.5l6.95-11.5Z"/>
  <path class="cls-1" d="M404.93,111.4c-1.62.83-3.82,1.03-6.18-1.13-5.65-5.18-1.59-9.65,1-12.48l11.63-12.76c4.17-4.57,5.64-9.77,1.71-13.37-4.92-4.51-10.95-1.27-13.73,1.77l-17.33,19.01,2.25,2.06-.67.74-9.22-8.45.67-.73,2.25,2.06,23.89-26.2-2.25-2.06.72-.79,6.96,6.38-3.54,3.88c3.45-1.56,7.72-1.5,11.49,1.95,6.55,6,5.34,13.96-.26,20.1l-13.17,14.44c-1.96,2.15-1.45,3.59-.61,4.36,1.1,1.01,2.4.95,3.54.45l.84.77Z"/>
  <path class="cls-1" d="M429.35,144.61c-1.73.4-3.95.27-5.84-2.31-3.16-4.29-1.67-7.43.49-9.64-4.28.78-8.24-.89-10.76-4.32-3.29-4.46-3.98-8.64-3.05-12.77.99-4.53,4.49-8.63,9.06-12.01,4-2.96,8-4.94,11.9-5.27,5.14-.44,9.82,1.49,13.74,6.81,1.56,2.12,2.6,4.62,3.02,7.22,1,6.86-1.5,11.63-8.52,16.82l-12.62,9.33c-2.23,1.65-2.15,3.18-1.48,4.1.88,1.2,2.17,1.4,3.34,1.06l.72.97ZM437.84,122.24c7.54-5.57,10.72-10.23,6.09-16.53-4.34-5.9-9.43-4.43-14.45-.71l-8.56,6.33c-8.22,6.08-10.84,10.67-6.71,16.28,3.54,4.81,9.48,5.1,12.85,2.6l10.79-7.98Z"/>
  <path class="cls-1" d="M446.04,180.91c-1.81.15-3.92-.5-5.29-3.39-3.28-6.94,2.17-9.53,5.63-11.17l15.58-7.4c5.58-2.65,8.91-6.9,6.63-11.73-2.85-6.04-9.66-5.33-13.38-3.57l-23.21,11.02,1.31,2.76-.9.43-5.34-11.32.9-.43,1.31,2.76,47.33-22.46-1.31-2.76.96-.46,4.04,8.55-20.07,9.53c3.78-.14,7.71,1.53,9.9,6.16,3.79,8.04-.32,14.95-7.82,18.51l-17.63,8.37c-2.63,1.25-2.69,2.77-2.21,3.8.64,1.35,1.87,1.79,3.1,1.75l.49,1.03Z"/>
  <path class="cls-1" d="M456.02,220.9c-1.75-.29-3.75-1.26-4.53-4.36-1.29-5.17,1.27-7.51,4.11-8.73-4.25-.91-7.28-3.96-8.32-8.1-1.35-5.38-.4-9.51,2.02-12.98,2.63-3.81,7.43-6.27,12.94-7.65,4.82-1.21,9.27-1.52,13.01-.34,4.92,1.55,8.52,5.12,10.13,11.54.64,2.55.66,5.26.06,7.83-1.68,6.73-5.79,10.18-14.26,12.31l-15.21,3.82c-2.68.67-3.2,2.12-2.92,3.23.36,1.45,1.48,2.12,2.69,2.26l.29,1.17ZM472.35,203.44c9.08-2.28,13.8-5.37,11.9-12.96-1.78-7.11-7.04-7.69-13.1-6.17l-10.32,2.59c-9.91,2.49-14.07,5.74-12.38,12.5,1.45,5.8,6.84,8.33,10.9,7.31l13.01-3.27Z"/>
  <path class="cls-1" d="M457.62,261.55c-1.73-.56-3.43-1.97-3.59-5.17-.37-7.67,5.65-7.97,9.48-8.16l17.22-.84c6.17-.3,10.87-2.95,10.61-8.28-.33-6.68-6.88-8.64-10.99-8.44l-25.65,1.25.15,3.06-.99.05-.61-12.5.99-.05.15,3.06,35.36-1.73-.15-3.05,1.06-.05.46,9.45-5.24.26c3.55,1.32,6.54,4.38,6.78,9.5.43,8.88-6.01,13.68-14.3,14.09l-19.49.95c-2.91.14-3.55,1.53-3.49,2.66.07,1.49,1.04,2.37,2.2,2.81l.06,1.14Z"/>
  <path class="cls-1" d="M451.7,302.34c-1.51-.94-2.99-2.59-2.53-5.76.77-5.28,4.02-6.46,7.11-6.51-3.59-2.46-5.23-6.44-4.62-10.67.8-5.49,3.23-8.95,6.79-11.23,3.88-2.53,9.25-2.96,14.87-2.15,4.91.72,9.16,2.13,12.16,4.65,3.96,3.31,5.94,7.98,4.99,14.53-.38,2.6-1.39,5.12-2.92,7.27-4.11,5.58-9.22,7.21-17.86,5.95l-15.52-2.26c-2.74-.4-3.76.75-3.93,1.87-.21,1.48.57,2.53,1.63,3.11l-.17,1.2ZM473.43,292.43c9.27,1.35,14.8.29,15.92-7.45,1.05-7.25-3.6-9.8-9.78-10.7l-10.53-1.54c-10.11-1.47-15.19-.06-16.19,6.84-.86,5.91,3.16,10.31,7.31,10.91l13.27,1.94Z"/>
  <path class="cls-1" d="M438.02,339.93c-1.39-1.17-2.44-3.12-1.37-6.14,2.55-7.24,8.24-5.23,11.85-3.95l16.26,5.75c5.82,2.06,11.17,1.39,12.94-3.64,2.22-6.3-3.11-10.61-6.99-11.98l-24.22-8.57-1.02,2.88-.94-.33,4.16-11.8.94.33-1.02,2.88,49.37,17.47,1.02-2.88,1,.36-3.14,8.92-20.94-7.41c2.78,2.57,4.4,6.53,2.69,11.36-2.95,8.38-10.73,10.38-18.55,7.61l-18.4-6.51c-2.74-.97-3.86.07-4.24,1.14-.5,1.41.07,2.59.97,3.44l-.38,1.07Z"/>
  <path class="cls-1" d="M417.03,375.35c-1.04-1.45-1.78-3.54-.15-6.29,2.71-4.59,6.17-4.43,9.05-3.3-2.38-3.65-2.39-7.95-.22-11.62,2.82-4.77,6.39-7.03,10.55-7.79,4.55-.85,9.68.79,14.56,3.7,4.27,2.54,7.66,5.46,9.47,8.94,2.41,4.57,2.46,9.65-.91,15.34-1.34,2.26-3.23,4.2-5.46,5.6-5.92,3.59-11.26,3.14-18.77-1.32l-13.48-8.02c-2.38-1.42-3.76-.75-4.34.23-.76,1.28-.44,2.55.32,3.5l-.62,1.04ZM440.89,374.49c8.05,4.79,13.57,5.92,17.55-.81,3.73-6.3.4-10.43-4.97-13.62l-9.15-5.44c-8.79-5.23-14.02-5.86-17.57.14-3.04,5.14-.99,10.74,2.61,12.88l11.53,6.86Z"/>
  <path class="cls-1" d="M389.65,405.38c-.84-1.62-1.06-3.82,1.08-6.2,5.12-5.72,9.61-1.68,12.46.89l12.83,11.55c4.59,4.14,9.79,5.57,13.35,1.6,4.46-4.97,1.17-10.99-1.89-13.75l-19.11-17.21-2.04,2.28-.74-.67,8.34-9.31.74.67-2.04,2.28,26.34,23.72,2.04-2.28.79.71-6.3,7.04-3.91-3.52c1.59,3.44,1.57,7.72-1.84,11.53-5.93,6.62-13.87,5.48-20.05-.08l-14.52-13.07c-2.17-1.95-3.59-1.42-4.35-.57-1,1.11-.93,2.42-.41,3.55l-.76.85Z"/>
  <path class="cls-1" d="M356.76,430.16c-.41-1.74-.3-3.95,2.25-5.88,4.25-3.21,7.39-1.74,9.62.4-.81-4.28.81-8.27,4.21-10.83,4.42-3.33,8.58-4.07,12.71-3.17,4.53.95,8.65,4.43,12.06,8.97,2.98,3.98,5,7.97,5.36,11.89.49,5.15-1.39,9.86-6.66,13.84-2.1,1.58-4.58,2.65-7.18,3.1-6.84,1.06-11.61-1.39-16.85-8.39l-9.42-12.56c-1.66-2.22-3.19-2.13-4.1-1.45-1.19.9-1.37,2.19-1.03,3.36l-.96.73ZM379.14,438.47c5.63,7.5,10.3,10.66,16.54,5.95,5.84-4.4,4.33-9.49.58-14.5l-6.4-8.53c-6.14-8.19-10.74-10.77-16.3-6.58-4.76,3.59-5,9.55-2.48,12.91l8.06,10.74Z"/>
</svg>