<?xml version="1.0" encoding="UTF-8"?>
<svg id="_レイヤー_1" data-name=" レイヤー 1" xmlns="http://www.w3.org/2000/svg" viewBox="0 0 427 208.88">
  <defs>
    <style>
      .cls-1 {
        fill: #efcc57;
      }

      .cls-2 {
        fill: #8d8d8c;
      }
    </style>
  </defs>
  <g>
    <path class="cls-1" d="M25.55,29.31c-.1-.83-.28-2.25.59-3.12.74-.75,1.99-.83,2.87-.63,1.3.31,2.27,1.36,5.35,8,2.47,5.35,1.91,4.81,3,6.7.83,1.45,1.35,3.05,2.06,4.55.18.37.73,1.3.55,2.42-.06.34-.16.96-.49,1.11-.84.39-2.65-2.3-6.06-6.59-1.57-1.98-3.11-4.11-6.2-8.37-.38-.53-1.42-2-1.68-4.08Z"/>
    <path class="cls-1" d="M104.76,18.91c.53-.01,1.7-.04,2.63.77.63.54.89,1.25,1,1.69.02.07.03.13.03.2.03.54-.02,1.28-.38,2.03-.95,1.97-3.32,2.37-6.66,3.56-.52.18-2.42,1.04-6.22,2.75-2.12.95-5.12,2.41-8.69,4.49-.96.83-2.02.94-2.35.59-.33-.36-.13-1.46.85-2.35,3.81-3.86,7.31-6.91,10.16-9.22,0,0,5.44-4.4,9.64-4.49Z"/>
    <path class="cls-1" d="M21.94,82.18c2.67-2.32,4.04-3.4,5.82-4.47,3.41-2.06,4.65-1.89,5.31-1.68,1.26.42,2.07,1.58,2.14,1.7,0,0,.64.95.55,1.77,0,.09-.03.16-.03.17-.02.06-.05.13-.08.19-.43.73-.75,1.07-.75,1.07-.49.52-1.07.9-1.48,1.16-.87.56-1.31.84-1.94,1.21,0,0-.93.54-2.82,1.72-1.21.76-2.13,1.41-3.58,2.49-4.96,3.66-7.44,5.48-9.27,7.15-1.83,1.67-1.55,1.6-5.33,5.19-1.72,1.64-2.39,2.23-3.51,3.47-.85.94-1.27,1.5-2.29,2.51-2.69,2.66-3.48,2.47-3.71,2.39-.62-.22-.86-.98-.89-1.09-.35-1.15.47-2.31,1.34-3.5,2.89-3.94,3.6-4.71,3.6-4.71,4.07-4.39,3.06-3.74,5.82-6.56,1.33-1.36,3.09-2.97,6.61-6.17.84-.76,2.41-2.19,4.49-3.99Z"/>
    <path class="cls-1" d="M421.24,41.41c-.77-.89-.58-2.11-.56-2.23.14-.85.64-1.39.83-1.58.1-.13.97-1.27,2.41-1.26,1.18,0,1.94.78,2.18,1.02.26.27.83.85.9,1.69.1,1.24-.94,2.28-1.79,2.73-1.16.63-3,.75-3.97-.38Z"/>
    <path class="cls-1" d="M411.29,41.98c-.09-.51-.55-.86-1.06-.81-1.26.14-2.79.34-4.52.61-2.8.44-5.21.94-7.44,1.46-8.26,1.92-14.99,4.15-14.99,4.15-7.12,2.36-42.61,14.56-59.06,21.95-1.26.57-4.94,2.24-10.09,3.06-2.94.47-5.57.54-7.74.45-.31-.01-.59-.17-.76-.42-.15-.21-.29-.51-.35-.87-.1-.61.09-1.09.17-1.27,1.29-.41,3.56-1.33,5.75-3.36,2.33-2.16,3.44-4.52,3.94-5.82.02-.04.03-.08.04-.12.15-.62.39-2.02-.18-3.62-.44-1.24-1.16-2.04-1.59-2.45-.13-.27-.68-1.32-1.94-1.85-1.56-.65-2.97.04-3.17.15-2.13,1.1-5.09,2.93-8.04,5.86-2.92,2.91-4.75,5.84-5.86,7.95-.16.31-.32.7-.45,1.15-.18.64-.23,1.22-.23,1.7,0,.37-.19.7-.51.88-2.23,1.19-5.41,2.93-9.17,5.14-3.73,2.19-5.13,3.11-7.83,4.58-2.43,1.32-5.93,3.09-10.37,4.88-.07.03-.15.05-.23.07-1.92.32-3.39.15-4.25-.01-1.06-.2-1.63-.48-2.09-.9-.51-.46-.78-.99-.92-1.34-.32-.98-.61-2.2-.71-3.63-.23-3.33.72-5.99,1.4-7.49.02-.05.05-.1.08-.15.34-.51.81-1.13,1.45-1.74.69-.67,1.38-1.15,1.95-1.48.1-.06.19-.13.26-.22.32-.42.91-1.33.99-2.62.07-1.11-.28-1.97-.49-2.39-.02-.04-.04-.07-.06-.11-.25-.38-.67-.91-1.35-1.35-1.38-.89-2.82-.74-3.26-.68-2.4.45-3.98,1.33-4.94,2.02-2.81,2.01-2.74,3.02-5.45,4.49-.57.31-1.34.67-2.7,1.46-1.15.67-1.96,1.19-2.42,1.48-2.28,1.45-3.98,2.36-5.11,3.01-1.93,1.11-6.14,3.73-15.97,10.24-.04.03-.09.06-.14.08-6.64,2.97-11.35,5.29-14.69,7.01-2.4,1.23-6.19,3.24-11.69,4.85-1.09.32-2.01.55-2.64.71-.2.05-1.89.44-2.8-.52-.45-.47-.58-1.14-.72-1.83-.13-.65-.13-1.21-.1-1.58-.2-2.05.13-3.55.46-4.54.61-1.78,1.5-2.68,1.47-4.37-.02-1-.35-1.83-.65-2.39-.06-.11-.13-.2-.23-.28-.45-.37-1.11-.79-1.96-1-1.59-.38-3.01.17-4.32.67-.86.33-.79.42-2.58,1.2-1.29.56-1.42.56-2.11.88-1.16.54-1.82,1.02-3.21,1.98-1.17.81-2.37,1.57-3.54,2.38-3.28,2.28-7.23,5.02-11.85,6.46-.68.21-.03-.02-4.08.85-1.39.3-2.69.59-3.74.04-.23-.12-.74-.39-.92-.95-.12-.38-.04-.72.02-.9.07-.15.46-.99.11-1.94-.44-1.19-1.64-1.51-1.75-1.54-1.01-.22-1.86-.23-2.47-.19-1.21.07-2.11.37-2.96.66-1.03.35-1.78.72-2.24.95-1.77.9-2.65,1.34-4.49,2.62-1.32.91-1.74,1.06-8.14,4.54,0,0-3.26,1.77-13.47,7.42-7.28,4.03-13.46,7.8-25.81,15.35-4.85,2.96-10.18,5.22-14.59,8.79,0,0-3.77,3.05-8.5,4.89-1.86.72-3.37.97-4.27,1.08-1.12.13-2.08.13-2.78.09-.09,0-.16-.02-.25-.05-1.44-.46-3.58-1.34-5.74-3.05-3.89-3.06-5.4-6.85-5.94-8.26-1.77-4.6-1.39-8.69-1.19-10.73,2.24-22.06,6.15-35.69,6.15-35.69.72-2.94,1.92-7.53,3.65-13.1,1.55-4.99,2.79-8.37,3.7-10.91,6.14-17.19,5.81-20.49,10.64-32.82,3.72-9.49,5.58-14.24,6.27-14.99.44-.48,1.99-2.06,1.67-3.71-.18-.92-.94-1.8-1.91-2.11-1.22-.38-2.32.29-2.9.65-1.31.81-1.96,1.92-2.86,3.66-2.03,3.92-3.19,6.92-4.45,9.71-.11.25-.42.92-.81,1.86-.31.73-.6,1.47-1.03,2.58-.22.58-.75,1.96-1.31,3.52-1.06,2.99-2.16,6.49-4.02,12.16-.36,1.11-.93,2.83-1.85,4.97,0,0,0,0-.89,2-.79,1.77-1.28,2.88-1.94,4.36-.02.05-.14.31-.14.31-3.29,7.47-6.06,17.59-6.06,17.59-4.1,14.99-3.75,12.44-5.18,18.42,0,0-5.29,22.16-4.17,37.72.23,3.15.88,5.81,1.11,6.72.67,2.56,1.21,4.61,2.68,6.87.84,1.3,2.42,3.31,5.24,5.08,1.58.93,3.76,1.97,6.46,2.66,4.6,1.18,8.55.78,10.91.35.04,0,.07-.01.1-.02,1.37-.4,3.32-1.03,5.58-1.99,4.64-1.96,7.79-4.09,9.38-5.16,6.99-4.69,13.62-8.75,15.92-10.14,6.85-4.14,7.58-4,16.33-9.29,1.78-1.08,3.82-2.35,7.9-4.9,8.29-5.17,10.36-6.58,14.22-8.61,1.95-1.02,4.5-2.28,7.57-3.59.52-.22,1.11.04,1.3.58.17.49.41,1.04.76,1.61,0,0,.68,1.13,1.69,2.03,2.49,2.23,6.7,2.26,7.4,2.25.05,0,.09,0,.14-.01,1.4-.23,3.35-.64,5.6-1.42,1.34-.47,4.42-1.64,10.22-5.62,2.67-1.84,6.1-4.39,9.86-7.77.23-.2.56-.42.86-.34.62.17.71,1.47.87,2.59.31,2.15.97,4.26,1.63,5.55.96,1.89,2.39,2.95,3.4,3.7,1.09.81,3.27,2.42,6.16,2.45.89,0,1.71-.13,5.47-1.7,3.88-1.62,6.45-2.9,6.45-2.9,4.64-2.3,7.32-3.67,8.69-4.35,7.26-3.63,7.53-3.08,12.68-5.76,3.93-2.05,4.48-2.73,10.87-6.67,2.72-1.67,6.6-4,11.43-6.67.63-.35,1.41.09,1.45.81.06,1.08.15,2.01.24,2.74.54,4.45,1.46,6.03,1.75,6.5.5.81,1.03,1.41,1.41,1.8.04.04.07.07.11.1.99.77,2.35,1.63,4.07,2.29,3.98,1.53,7.58,1.07,9.33.71.03,0,.05-.01.08-.02,1.65-.47,4.04-1.23,6.82-2.41,4.2-1.78,6.85-3.5,10.08-5.42,2.83-1.68,6.84-3.97,11.9-6.52.28-.14.61-.14.88,0,.73.38,1.68.82,2.8,1.26,3.8,1.49,6.87,1.8,7.57,1.87.71.06,2.28.18,4.26.03,3.93-.29,6.88-1.4,8.25-1.94,7.83-3.08,13.48-6.45,13.95-6.73.02-.01.05-.03.07-.04,3.23-1.59,7.2-3.48,11.78-5.51,2.27-1.01,7.84-3.44,15.3-6.3,1.9-.73,10.82-4.14,23.33-8.04,7.09-2.21,15.91-4.76,26.2-7.28.5-.12.82-.6.73-1.11h0ZM302.67,64.55c-.35-.26.24-1.8.99-2.93.08-.13,1.67-2.45,4.58-3.16.58-.14,1.49-.35,1.82.08.31.39-.04,1.14-.17,1.42-.12.26-.64,1.29-2.8,2.45-1.3.7-1.41.49-2.72,1.24-1.09.63-1.5,1.05-1.7.91Z"/>
  </g>
  <g>
    <path class="cls-2" d="M139.18,170.74h4.19v33.56h23.17v3.63h-27.35v-37.19Z"/>
    <path class="cls-2" d="M186.57,194.09v-23.79h4.05v23.31c0,7.61,2.37,11.16,8.09,11.16,4.33,0,7.4-2.23,11.58-7.26v-27.21h4.05v37.19h-3.42l-.35-6.14h-.21c-3.63,4.19-7.4,7.05-12.56,7.05-7.75,0-11.23-4.74-11.23-14.3Z"/>
    <path class="cls-2" d="M231.82,189.41c0-12.42,8.99-19.61,19.32-19.61,5.55,0,9.31,2.23,12.2,4.54l-2.58,2.79c-2.58-2.16-5.63-3.77-9.54-3.77-8.29,0-14.62,6.56-14.62,16.05s5.79,15.98,14.55,15.98c4.3,0,8.06-1.88,10.87-4.12l2.27,2.79c-3.68,2.79-8.13,4.82-13.37,4.82-10.87,0-19.08-7.12-19.08-19.47Z"/>
    <path class="cls-2" d="M278.43,189.41c0-12.07,8.92-19.61,18.3-19.61,1.38,0,7.03-.15,10.92,3.68,2.43,2.4,3.5,5.66,3.65,6.1.45,1.43.62,2.69.69,3.6-9.65,2.28-19.3,4.57-28.94,6.85.24,9.07,6.26,15.42,15.25,15.42,4.46,0,7.98-1.26,11.11-3.21l1.72,3c-3.36,1.88-7.27,3.63-13.3,3.63-10.71,0-19.4-7.26-19.4-19.47ZM307.84,180.84c-.36-1.16-1.22-3.3-3.29-5.05-2.96-2.51-6.4-2.5-7.74-2.5-6.81,0-12.91,5.02-13.77,13.54l24.79-5.99Z"/>
  </g>
</svg>