<?xml version="1.0" encoding="UTF-8"?>
<svg id="_レイヤー_1" data-name="レイヤー 1" xmlns="http://www.w3.org/2000/svg" viewBox="0 0 1032 208">
  <defs>
    <style>
      .cls-1, .cls-2 {
        fill: #fff;
      }

      .cls-3 {
        letter-spacing: -.02em;
      }

      .cls-4 {
        letter-spacing: -.02em;
      }

      .cls-2 {
        font-family: Montserrat-MediumItalic, Montserrat;
        font-size: 136px;
        font-style: italic;
        font-weight: 500;
      }
    </style>
  </defs>
  <g>
    <path class="cls-1" d="M89.75,190.58v10.52h-3.31v-10.14c0-3.59-1.79-5.35-4.93-5.35-3.52,0-5.8,2.1-5.8,6.07v9.42h-3.31v-25.6h3.31v9.9c1.38-1.76,3.66-2.76,6.45-2.76,4.45,0,7.59,2.55,7.59,7.94Z"/>
    <path class="cls-1" d="M117.28,190.06v11.04h-3.14v-2.41c-1.1,1.66-3.14,2.62-6,2.62-4.14,0-6.76-2.21-6.76-5.38,0-2.93,1.9-5.35,7.35-5.35h5.24v-.66c0-2.79-1.62-4.42-4.9-4.42-2.17,0-4.38.76-5.8,1.97l-1.38-2.48c1.9-1.52,4.62-2.35,7.56-2.35,5,0,7.83,2.42,7.83,7.42ZM113.97,195.51v-2.55h-5.11c-3.28,0-4.21,1.28-4.21,2.83,0,1.83,1.52,2.97,4.04,2.97s4.45-1.14,5.28-3.24Z"/>
    <path class="cls-1" d="M147.67,190.58v10.52h-3.31v-10.14c0-3.59-1.79-5.35-4.93-5.35-3.52,0-5.8,2.1-5.8,6.07v9.42h-3.31v-18.28h3.17v2.76c1.35-1.86,3.69-2.93,6.59-2.93,4.45,0,7.59,2.55,7.59,7.94Z"/>
    <path class="cls-1" d="M175.2,190.06v11.04h-3.14v-2.41c-1.1,1.66-3.14,2.62-6,2.62-4.14,0-6.76-2.21-6.76-5.38,0-2.93,1.9-5.35,7.35-5.35h5.24v-.66c0-2.79-1.62-4.42-4.9-4.42-2.17,0-4.38.76-5.8,1.97l-1.38-2.48c1.9-1.52,4.62-2.35,7.56-2.35,5,0,7.83,2.42,7.83,7.42ZM171.88,195.51v-2.55h-5.11c-3.28,0-4.21,1.28-4.21,2.83,0,1.83,1.52,2.97,4.04,2.97s4.45-1.14,5.28-3.24Z"/>
    <path class="cls-1" d="M221.66,175.5v25.6h-3.17v-2.9c-1.48,2.07-3.83,3.1-6.52,3.1-5.35,0-9.25-3.76-9.25-9.35s3.9-9.31,9.25-9.31c2.59,0,4.86.97,6.38,2.93v-10.07h3.31ZM218.38,191.96c0-3.9-2.66-6.42-6.14-6.42s-6.18,2.52-6.18,6.42,2.66,6.45,6.18,6.45,6.14-2.55,6.14-6.45Z"/>
    <path class="cls-1" d="M251.29,193.06h-14.84c.41,3.21,3,5.35,6.62,5.35,2.14,0,3.93-.73,5.28-2.21l1.83,2.14c-1.66,1.93-4.17,2.97-7.21,2.97-5.9,0-9.83-3.9-9.83-9.35s3.9-9.31,9.18-9.31,9.04,3.8,9.04,9.42c0,.27-.03.69-.07,1ZM236.46,190.68h11.73c-.34-3.07-2.66-5.24-5.87-5.24s-5.52,2.14-5.87,5.24Z"/>
    <path class="cls-1" d="M260.53,199.17l1.38-2.62c1.55,1.1,4.04,1.9,6.42,1.9,3.07,0,4.35-.93,4.35-2.48,0-4.11-11.56-.55-11.56-7.83,0-3.28,2.93-5.49,7.62-5.49,2.38,0,5.07.62,6.66,1.66l-1.41,2.62c-1.66-1.07-3.48-1.45-5.28-1.45-2.9,0-4.31,1.07-4.31,2.52,0,4.31,11.59.79,11.59,7.9,0,3.31-3.04,5.42-7.9,5.42-3.03,0-6.04-.93-7.55-2.14Z"/>
    <path class="cls-1" d="M286.44,177.16c0-1.21.97-2.17,2.24-2.17s2.24.93,2.24,2.1c0,1.24-.93,2.21-2.24,2.21s-2.24-.93-2.24-2.14ZM287.02,182.82h3.31v18.28h-3.31v-18.28Z"/>
    <path class="cls-1" d="M321.04,182.82v15.8c0,6.45-3.28,9.38-9.49,9.38-3.35,0-6.73-.93-8.73-2.73l1.59-2.55c1.69,1.45,4.35,2.38,7.04,2.38,4.31,0,6.28-2,6.28-6.14v-1.45c-1.59,1.9-3.97,2.83-6.59,2.83-5.28,0-9.28-3.59-9.28-8.87s4-8.83,9.28-8.83c2.73,0,5.21,1,6.76,3v-2.83h3.14ZM317.8,191.47c0-3.55-2.62-5.93-6.28-5.93s-6.31,2.38-6.31,5.93,2.62,5.97,6.31,5.97,6.28-2.45,6.28-5.97Z"/>
    <path class="cls-1" d="M351.6,190.58v10.52h-3.31v-10.14c0-3.59-1.79-5.35-4.93-5.35-3.52,0-5.8,2.1-5.8,6.07v9.42h-3.31v-18.28h3.17v2.76c1.35-1.86,3.69-2.93,6.59-2.93,4.45,0,7.59,2.55,7.59,7.94Z"/>
  </g>
  <g>
    <path class="cls-1" d="M85.04,100.68v-9.75c0-16.94-4.96-28.23-21.9-28.23-9.24,0-17.28,3.25-25.67,10.27l-1.54-1.88c9.24-8.56,18.82-14.03,33.54-14.03,21.05,0,31.83,10.27,31.83,32.34v43.8c0,8.21,0,13.01,8.38,13.01,1.2,0,2.22-.17,3.25-.34v1.03c-2.74,1.71-8.04,4.28-14.2,4.28-2.54,0-6.08-.29-9.17-2.94-4.04-3.46-4.31-8.6-4.34-9.73-.06-12.61-.11-25.21-.17-37.82Z"/>
    <path class="cls-1" d="M300.93,100.35v-9.75c0-16.94-4.96-28.23-21.9-28.23-9.24,0-17.28,3.25-25.67,10.27l-1.54-1.88c9.24-8.56,18.82-14.03,33.54-14.03,21.05,0,31.83,10.27,31.83,32.34v43.8c0,8.21,0,13.01,8.38,13.01,1.2,0,2.22-.17,3.25-.34v1.03c-2.74,1.71-8.04,4.28-14.2,4.28-2.54,0-6.08-.29-9.17-2.94-4.04-3.46-4.31-8.6-4.34-9.73-.06-12.61-.11-25.21-.17-37.82Z"/>
    <path class="cls-1" d="M32.21,78.01v60.79c0,4.46,1.56,7.7,4.33,9.12,2.6,1.42,5.37,1.82,8.31,2.03v1.22H4.16v-1.22c2.94-.2,5.2-.41,7.45-1.21,3.29-1.22,4.68-4.46,4.68-8.92V17.43c-.17-4.86-1.9-9.12-4.5-11.35C9.7,4.46,3.12,3.24,0,3.04v-1.01L31.52,0l.69.81v77.2Z"/>
    <path class="cls-1" d="M248.1,105.31v38.27c0,2.81,1.56,4.85,4.33,5.74,2.6.89,5.37,1.15,8.31,1.28v.77h-40.69v-.77c2.94-.13,5.2-.26,7.45-.76,3.29-.77,4.68-2.81,4.68-5.61v-77.06c-.17-3.06-1.9-5.74-4.5-7.14-2.08-1.02-8.66-1.79-11.78-1.91v-.64l31.52-1.28.69.51v48.61Z"/>
    <path class="cls-1" d="M138.42,75.19c-1.16-.3-2.33-.61-3.49-.91,1.41-3.24,4.55-9.15,10.93-13.9,8.32-6.2,17.03-6.6,21.64-6.8,5.05-.23,11.73-.53,18.56,3.47,2.6,1.53,8.84,5.18,10.45,12.44.2.88,1.29,5.89-1.33,10.9-3.05,5.85-8.79,7.86-15.16,10.64-8.49,3.7-20.71,9.02-29.74,17.48-.27.26-.5.46-.82.78-1.8,1.77-12.27,12.06-9.13,21.88,1.55,4.86,5.74,7.4,6.71,8,.88.54,5.42,3.14,11.11,2.15,5.74-1,9.09-4.99,10-6.16,6.1-6.4,9.9-11.56,12.36-15.4,1.11-1.73,2.89-4.66,6.28-5.7.79-.24,4.62-1.29,6.91.66,3,2.55.82,8.07,1.29,22.44.1,3.15.29,5.43,1.73,6.16,2.53,1.28,7.08-3.19,8.03-4.16.95-.02,1.9-.03,2.86-.05-.55,1.11-5.58,10.96-13.5,12.82-1.2.28-3.56.84-6.38,0-2.59-.77-4.42-2.38-5.31-3.44-5.13-6.13.88-18.32-.74-18.98-1.13-.46-3.73,5.59-9.37,11.34-4.06,4.14-8.25,6.66-11.18,8.15-1.63.85-14.8,7.44-27.13,1.06-1.91-.99-7.48-3.97-10.64-10.64-2.98-6.29-2.74-13.6,0-19.15,2.85-5.78,7.83-8.44,14.6-11.95,32.3-16.73,40.85-20.61,42.66-28.44,1.47-6.38-1.4-11.48-1.4-11.48-.68-1.35-1.43-2.37-2.23-3.19-1.77-1.78-3.57-2.61-4.61-3.05-3.86-1.64-9.65-2.32-15.67-.95-5.92,1.35-9.76,4.15-10.52,4.72-4.37,3.27-6.69,7.11-7.77,9.24Z"/>
    <path class="cls-1" d="M354.81,73.2c-1.16-.3-2.33-.61-3.49-.91,1.41-3.24,4.55-9.15,10.93-13.9,8.32-6.2,17.03-6.6,21.64-6.8,5.05-.23,11.73-.53,18.56,3.47,2.6,1.53,8.84,5.18,10.45,12.44.2.88,1.29,5.89-1.33,10.9-3.05,5.85-8.79,7.86-15.16,10.64-8.49,3.7-20.71,9.02-29.74,17.48-.27.26-.5.46-.82.78-1.8,1.77-12.27,12.06-9.13,21.88,1.55,4.86,5.74,7.4,6.71,8,.88.54,5.42,3.14,11.11,2.15,5.74-1,9.09-4.99,10-6.16,6.1-6.4,9.9-11.56,12.36-15.4,1.11-1.73,2.89-4.66,6.28-5.7.79-.24,4.62-1.29,6.91.66,3,2.55.82,8.07,1.29,22.44.1,3.15.29,5.43,1.73,6.16,2.53,1.28,7.08-3.19,8.03-4.16.95-.02,1.9-.03,2.86-.05-.55,1.11-5.58,10.96-13.5,12.82-1.2.28-3.56.84-6.38,0-2.59-.77-4.42-2.38-5.31-3.44-5.13-6.13.88-18.32-.74-18.98-1.13-.46-3.73,5.59-9.37,11.34-4.06,4.14-8.25,6.66-11.18,8.15-1.63.85-14.8,7.44-27.13,1.06-1.91-.99-7.48-3.97-10.64-10.64-2.98-6.29-2.74-13.6,0-19.15,2.85-5.78,7.83-8.44,14.6-11.95,32.3-16.73,40.85-20.61,42.66-28.44,1.47-6.38-1.4-11.48-1.4-11.48-.68-1.35-1.43-2.37-2.23-3.19-1.77-1.78-3.57-2.61-4.61-3.05-3.86-1.64-9.65-2.32-15.67-.95-5.92,1.35-9.76,4.15-10.52,4.72-4.37,3.27-6.69,7.11-7.77,9.24Z"/>
  </g>
  <text class="cls-2" transform="translate(488.28 150.83)"><tspan class="cls-3" x="0" y="0">W</tspan><tspan x="150.14" y="0">OR</tspan><tspan class="cls-4" x="363.25" y="0">K</tspan><tspan x="459" y="0">S</tspan></text>
</svg>