<?xml version="1.0" encoding="UTF-8"?>
<svg id="_レイヤー_1" data-name=" レイヤー 1" xmlns="http://www.w3.org/2000/svg" viewBox="0 0 1000 202">
  <defs>
    <style>
      .cls-1 {
        letter-spacing: -.02em;
      }

      .cls-1, .cls-2, .cls-3 {
        isolation: isolate;
      }

      .cls-1, .cls-4, .cls-3 {
        fill: #fff;
      }

      .cls-1, .cls-3 {
        font-family: Montserrat-Italic, Montserrat;
        font-size: 131.92px;
        font-style: italic;
      }
    </style>
  </defs>
  <g>
    <path class="cls-4" d="M87.06,185.1v10.2h-3.21v-9.84c0-3.48-1.74-5.19-4.78-5.19-3.41,0-5.63,2.04-5.63,5.89v9.14h-3.21v-24.83h3.21v9.6c1.34-1.71,3.55-2.68,6.26-2.68,4.32,0,7.36,2.47,7.36,7.7Z"/>
    <path class="cls-4" d="M113.76,184.6v10.71h-3.05v-2.34c-1.07,1.61-3.05,2.54-5.82,2.54-4.02,0-6.56-2.14-6.56-5.22,0-2.84,1.84-5.19,7.13-5.19h5.08v-.64c0-2.71-1.57-4.29-4.75-4.29-2.1,0-4.25.74-5.63,1.91l-1.34-2.41c1.84-1.47,4.48-2.28,7.33-2.28,4.85,0,7.6,2.35,7.6,7.2h0ZM110.55,189.88v-2.47h-4.96c-3.18,0-4.08,1.24-4.08,2.75,0,1.78,1.47,2.88,3.92,2.88s4.32-1.11,5.12-3.14h0Z"/>
    <path class="cls-4" d="M143.24,185.1v10.2h-3.21v-9.84c0-3.48-1.74-5.19-4.78-5.19-3.41,0-5.63,2.04-5.63,5.89v9.14h-3.21v-17.73h3.07v2.68c1.31-1.8,3.58-2.84,6.39-2.84,4.32,0,7.36,2.47,7.36,7.7h0Z"/>
    <path class="cls-4" d="M169.95,184.6v10.71h-3.05v-2.34c-1.07,1.61-3.05,2.54-5.82,2.54-4.02,0-6.56-2.14-6.56-5.22,0-2.84,1.84-5.19,7.13-5.19h5.08v-.64c0-2.71-1.57-4.29-4.75-4.29-2.1,0-4.25.74-5.63,1.91l-1.34-2.41c1.84-1.47,4.48-2.28,7.33-2.28,4.85,0,7.6,2.35,7.6,7.2h0ZM166.73,189.88v-2.47h-4.96c-3.18,0-4.08,1.24-4.08,2.75,0,1.78,1.47,2.88,3.92,2.88s4.32-1.11,5.12-3.14h0Z"/>
    <path class="cls-4" d="M215.01,170.47v24.83h-3.07v-2.81c-1.44,2.01-3.72,3.01-6.32,3.01-5.19,0-8.97-3.65-8.97-9.07s3.78-9.03,8.97-9.03c2.51,0,4.71.94,6.19,2.84v-9.77h3.21ZM211.83,186.44c0-3.78-2.58-6.23-5.96-6.23s-5.99,2.44-5.99,6.23,2.58,6.26,5.99,6.26,5.96-2.47,5.96-6.26Z"/>
    <path class="cls-4" d="M243.75,187.51h-14.39c.4,3.11,2.91,5.19,6.42,5.19,2.08,0,3.81-.71,5.12-2.14l1.78,2.08c-1.61,1.87-4.04,2.88-6.99,2.88-5.72,0-9.54-3.78-9.54-9.07s3.78-9.03,8.9-9.03,8.77,3.69,8.77,9.14c0,.26-.03.67-.07.97h0ZM229.37,185.2h11.38c-.33-2.98-2.58-5.08-5.69-5.08s-5.35,2.08-5.69,5.08h0Z"/>
    <path class="cls-4" d="M252.72,193.43l1.34-2.54c1.5,1.07,3.92,1.84,6.23,1.84,2.98,0,4.22-.9,4.22-2.41,0-3.99-11.21-.53-11.21-7.6,0-3.18,2.84-5.33,7.39-5.33,2.31,0,4.92.6,6.46,1.61l-1.37,2.54c-1.61-1.04-3.38-1.41-5.12-1.41-2.81,0-4.18,1.04-4.18,2.44,0,4.18,11.24.77,11.24,7.66,0,3.21-2.95,5.26-7.66,5.26-2.94,0-5.86-.9-7.32-2.08h0Z"/>
    <path class="cls-4" d="M277.85,172.08c0-1.17.94-2.1,2.17-2.1s2.17.9,2.17,2.04c0,1.2-.9,2.14-2.17,2.14s-2.17-.9-2.17-2.08h0ZM278.41,177.58h3.21v17.73h-3.21v-17.73Z"/>
    <path class="cls-4" d="M311.41,177.58v15.33c0,6.26-3.18,9.1-9.21,9.1-3.25,0-6.53-.9-8.47-2.65l1.54-2.47c1.64,1.41,4.22,2.31,6.83,2.31,4.18,0,6.09-1.94,6.09-5.96v-1.41c-1.54,1.84-3.85,2.75-6.39,2.75-5.12,0-9-3.48-9-8.6s3.88-8.57,9-8.57c2.65,0,5.05.97,6.56,2.91v-2.75h3.05,0ZM308.27,185.97c0-3.44-2.54-5.75-6.09-5.75s-6.12,2.31-6.12,5.75,2.54,5.79,6.12,5.79,6.09-2.38,6.09-5.79Z"/>
    <path class="cls-4" d="M341.05,185.1v10.2h-3.21v-9.84c0-3.48-1.74-5.19-4.78-5.19-3.41,0-5.63,2.04-5.63,5.89v9.14h-3.21v-17.73h3.07v2.68c1.31-1.8,3.58-2.84,6.39-2.84,4.32,0,7.36,2.47,7.36,7.7h0Z"/>
  </g>
  <g>
    <path class="cls-4" d="M82.49,97.66v-9.46c0-16.43-4.81-27.38-21.24-27.38-8.96,0-16.76,3.15-24.9,9.96l-1.49-1.82c8.96-8.3,18.26-13.61,32.53-13.61,20.42,0,30.88,9.96,30.88,31.37v42.49c0,7.96,0,12.62,8.13,12.62,1.16,0,2.15-.16,3.15-.33v1c-2.66,1.66-7.8,4.15-13.77,4.15-2.46,0-5.9-.28-8.89-2.85-3.92-3.36-4.18-8.34-4.21-9.44-.06-12.23-.11-24.45-.16-36.69h0Z"/>
    <path class="cls-4" d="M291.9,97.34v-9.46c0-16.43-4.81-27.38-21.24-27.38-8.96,0-16.76,3.15-24.9,9.96l-1.49-1.82c8.96-8.3,18.26-13.61,32.53-13.61,20.42,0,30.88,9.96,30.88,31.37v42.49c0,7.96,0,12.62,8.13,12.62,1.16,0,2.15-.16,3.15-.33v1c-2.66,1.66-7.8,4.15-13.77,4.15-2.46,0-5.9-.28-8.89-2.85-3.92-3.36-4.18-8.34-4.21-9.44-.06-12.23-.11-24.45-.16-36.69h0Z"/>
    <path class="cls-4" d="M31.24,75.67v58.97c0,4.33,1.51,7.47,4.2,8.85,2.52,1.38,5.21,1.77,8.06,1.97v1.18H4.04v-1.18c2.85-.19,5.04-.4,7.23-1.17,3.19-1.18,4.54-4.33,4.54-8.65V16.91c-.16-4.71-1.84-8.85-4.37-11.01C9.41,4.33,3.03,3.14,0,2.95v-.98L30.57,0l.67.79v74.88Z"/>
    <path class="cls-4" d="M240.66,102.15v37.12c0,2.73,1.51,4.7,4.2,5.57,2.52.86,5.21,1.12,8.06,1.24v.75h-39.47v-.75c2.85-.13,5.04-.25,7.23-.74,3.19-.75,4.54-2.73,4.54-5.44v-74.75c-.16-2.97-1.84-5.57-4.37-6.93-2.02-.99-8.4-1.74-11.43-1.85v-.62l30.57-1.24.67.49v47.15h0Z"/>
    <path class="cls-4" d="M134.27,72.93c-1.13-.29-2.26-.59-3.39-.88,1.37-3.14,4.41-8.88,10.6-13.48,8.07-6.01,16.52-6.4,20.99-6.6,4.9-.22,11.38-.51,18,3.37,2.52,1.48,8.57,5.02,10.14,12.07.19.85,1.25,5.71-1.29,10.57-2.96,5.67-8.53,7.62-14.71,10.32-8.24,3.59-20.09,8.75-28.85,16.96-.26.25-.49.45-.8.76-1.75,1.72-11.9,11.7-8.86,21.22,1.5,4.71,5.57,7.18,6.51,7.76.85.52,5.26,3.05,10.78,2.09,5.57-.97,8.82-4.84,9.7-5.98,5.92-6.21,9.6-11.21,11.99-14.94,1.08-1.68,2.8-4.52,6.09-5.53.77-.23,4.48-1.25,6.7.64,2.91,2.47.8,7.83,1.25,21.77.1,3.06.28,5.27,1.68,5.98,2.45,1.24,6.87-3.09,7.79-4.04.92-.02,1.84-.03,2.77-.05-.53,1.08-5.41,10.63-13.1,12.44-1.16.27-3.45.81-6.19,0-2.51-.75-4.29-2.31-5.15-3.34-4.98-5.95.85-17.77-.72-18.41-1.1-.45-3.62,5.42-9.09,11-3.94,4.02-8,6.46-10.84,7.91-1.58.82-14.36,7.22-26.32,1.03-1.85-.96-7.26-3.85-10.32-10.32-2.89-6.1-2.66-13.19,0-18.58,2.76-5.61,7.6-8.19,14.16-11.59,31.33-16.23,39.62-19.99,41.38-27.59,1.43-6.19-1.36-11.14-1.36-11.14-.66-1.31-1.39-2.3-2.16-3.09-1.72-1.73-3.46-2.53-4.47-2.96-3.74-1.59-9.36-2.25-15.2-.92-5.74,1.31-9.47,4.03-10.2,4.58-4.24,3.17-6.49,6.9-7.54,8.96v.02Z"/>
    <path class="cls-4" d="M344.17,71c-1.13-.29-2.26-.59-3.39-.88,1.37-3.14,4.41-8.88,10.6-13.48,8.07-6.01,16.52-6.4,20.99-6.6,4.9-.22,11.38-.51,18,3.37,2.52,1.48,8.57,5.02,10.14,12.07.19.85,1.25,5.71-1.29,10.57-2.96,5.67-8.53,7.62-14.71,10.32-8.24,3.59-20.09,8.75-28.85,16.96-.26.25-.49.45-.8.76-1.75,1.72-11.9,11.7-8.86,21.22,1.5,4.71,5.57,7.18,6.51,7.76.85.52,5.26,3.05,10.78,2.09,5.57-.97,8.82-4.84,9.7-5.98,5.92-6.21,9.6-11.21,11.99-14.94,1.08-1.68,2.8-4.52,6.09-5.53.77-.23,4.48-1.25,6.7.64,2.91,2.47.8,7.83,1.25,21.77.1,3.06.28,5.27,1.68,5.98,2.45,1.24,6.87-3.09,7.79-4.04.92-.02,1.84-.03,2.77-.05-.53,1.08-5.41,10.63-13.1,12.44-1.16.27-3.45.81-6.19,0-2.51-.75-4.29-2.31-5.15-3.34-4.98-5.95.85-17.77-.72-18.41-1.1-.45-3.62,5.42-9.09,11-3.94,4.02-8,6.46-10.84,7.91-1.58.82-14.36,7.22-26.32,1.03-1.85-.96-7.26-3.85-10.32-10.32-2.89-6.1-2.66-13.19,0-18.58,2.76-5.61,7.6-8.19,14.16-11.59,31.33-16.23,39.62-19.99,41.38-27.59,1.43-6.19-1.36-11.14-1.36-11.14-.66-1.31-1.39-2.3-2.16-3.09-1.72-1.73-3.46-2.53-4.47-2.96-3.74-1.59-9.36-2.25-15.2-.92-5.74,1.31-9.47,4.03-10.2,4.58-4.24,3.17-6.49,6.9-7.54,8.96v.02Z"/>
  </g>
  <g class="cls-2">
    <text class="cls-1" transform="translate(473.64 146.43)"><tspan x="0" y="0">W</tspan></text>
    <text class="cls-3" transform="translate(619.27 146.43)"><tspan x="0" y="0">OR</tspan></text>
    <text class="cls-1" transform="translate(825.99 146.43)"><tspan x="0" y="0">K</tspan></text>
    <text class="cls-3" transform="translate(918.87 146.43)"><tspan x="0" y="0">S</tspan></text>
  </g>
</svg>